<?xml version="1.0" encoding="UTF-8" standalone="no"?>
<svg
   xmlns:dc="http://purl.org/dc/elements/1.1/"
   xmlns:cc="http://creativecommons.org/ns#"
   xmlns:rdf="http://www.w3.org/1999/02/22-rdf-syntax-ns#"
   xmlns:svg="http://www.w3.org/2000/svg"
   xmlns="http://www.w3.org/2000/svg"
   xmlns:sodipodi="http://sodipodi.sourceforge.net/DTD/sodipodi-0.dtd"
   xmlns:inkscape="http://www.inkscape.org/namespaces/inkscape"
   version="1.1"
   viewBox="0 0 364.34915 446.39297"
   width="364.34915pt"
   height="446.39297pt"
   id="svg230"
   sodipodi:docname="helmet.svg"
   inkscape:version="0.92.3 (2405546, 2018-03-11)">
  <metadata
     id="metadata236">
    <rdf:RDF>
      <cc:Work
         rdf:about="">
        <dc:format>image/svg+xml</dc:format>
        <dc:type
           rdf:resource="http://purl.org/dc/dcmitype/StillImage" />
        <dc:title></dc:title>
      </cc:Work>
    </rdf:RDF>
  </metadata>
  <defs
     id="defs234" />
  <sodipodi:namedview
     pagecolor="#ffffff"
     bordercolor="#666666"
     borderopacity="1"
     objecttolerance="10"
     gridtolerance="10"
     guidetolerance="10"
     inkscape:pageopacity="0"
     inkscape:pageshadow="2"
     inkscape:window-width="2613"
     inkscape:window-height="1967"
     id="namedview232"
     showgrid="false"
     inkscape:pagecheckerboard="true"
     fit-margin-top="0"
     fit-margin-left="0"
     fit-margin-right="0"
     fit-margin-bottom="0"
     inkscape:zoom="2.0025264"
     inkscape:cx="67.546856"
     inkscape:cy="337.23706"
     inkscape:window-x="0"
     inkscape:window-y="0"
     inkscape:window-maximized="0"
     inkscape:current-layer="svg230" />
  <path
     d="m 184.27914,0.09399894 c 17.35,0.54 34.1,5.32999996 49.6,13.04000006 22.84,11.96 40.22,30.64 53.95,52.19 6.84,10.72 12.01,22.12 17.29,33.64 2.82,6.280001 4.25,12.740001 6.58,19.210001 5.07,1.65 7.48,3.25 10.68,7.5 2.76,5.31 5.44,10.7 7.59,16.28 4.26,12.14 6.22,25.15 7.18,37.94 0.36,22.71 -1.1,46.97 -8.32,68.66 -3.16,9.69 -8.05,18.41 -16.61,24.3 -1.73,1.02 -4.29,2 -5.03,4 -1.28,2.85 -1.93,6.02 -2.71,9.03 4.52,4.12 9.38,7.79 14.11,11.67 1.4,1.02 3.05,2.46 4.81,2.72 2.69,0.17 5.48,-0.45 8.17,-0.68 6.68,-0.81 13.55,0.96 20.44,1.5 2.64,0.63 5.71,1.43 7.8,3.23 1.98,1.75 3.38,4.35 4.54,6.69 -0.1,6.61 -1.61,12.92 -2.75,19.39 -3.43,5.98 -6.15,11.91 -10.63,17.23 -13.61,16.54 -30.3,27.29 -47.62,39.39 -7.6,5.05 -15.18,10.12 -22.64,15.39 -11.59,8.34 -23.15,16.52 -33.64,26.25 -1.88,1.66 -3.82,3.24 -5.72,4.86 -4.11,3.36 -7.28,7.74 -11.41,11.02 -3.6,2.54 -9.52,1.8 -13.7,1.57 -8.24,-0.44 -15.73,-2.97 -23.62,-5.04 -12.31,-5.2 -23.52,-12.35 -34.07,-20.49 -12.29,-9.5 -24.6,-18.9 -37.64,-27.37 -18.03,-11.36 -37.690003,-20.23 -58.440003,-25.23 -6.47,-1.83 -12.92,-3.64 -19.54,-4.81 -7.24,-1.28 -14.84,-2.97 -22.15,-2.9 -4.96,-1.63 -11.3100003,-3.08 -15.1500003,-6.78 -4.28,-4.21 -5.23999998,-10.83 -5.49999998,-16.55 -0.23,-7.96 -0.17,-16.04 0.32,-23.99 0.25,-4.98 2.06999998,-9.37 3.29999998,-14.11 7.8100003,-1.8 15.4500003,-3.17 23.5100003,-2.78 3.97,0.15 8.01,0.91 11.97,0.77 2.89,-0.06 5.38,-1.69 7.79,-3.1 5.6,-3.5 11.42,-6.6 17,-10.14 -2.02,-5.78 -4.27,-11.42 -6.84,-16.98 -4.03,-0.12 -7.67,-0.07 -11.06,-2.6 -9.39,-6.87 -13.61,-18.24 -16.96,-28.92 -3.03,-13.25 -5.31,-26.59 -6.04,-40.17 -0.83,-10.91 -0.43,-21.77 0.4,-32.66 2.92,-15.92 6.06,-32.02 15.45,-45.61 2.32,-3.55 5.79,-4.58 9.62,-5.83 3.17,-9.3 5.84,-18.710001 9.81,-27.740001 1.17,-2.74 2.42,-5.44 3.79,-8.09 6.74,-12.79 14.89,-24.77 24.81,-35.32 10.47,-10.96 22.910003,-19.77 36.440003,-26.54 19.06,-8.9300001 39.72,-13.89000006 60.84,-13.04000006 z"
     id="path16"
     inkscape:connector-curvature="0"
     style="fill:#040406" />
  <path
     d="m 176.21914,9.5539989 c 20.24,-0.46 40.53,4.9600001 57.82,15.5300001 18.93,11.47 33.46,28.31 45.03,46.97 8.96,14.97 16.28,30.880001 21.32,47.600001 6.45,21.81 9.91,44.52 10.4,67.25 0.49,22.3 -2.35,44.43 -7.34,66.14 -1.19,5.71 -2.81,11.32 -3.95,17.04 -1,6.38 -3.34,12.27 -5.25,18.59 8.94,6.81 18.11,13.86 28.05,19.15 4.17,2.59 10.15,-0.13 14.88,0.21 7.07,0.38 14.33,0.36 21.3,1.71 0.07,4.87 -0.63,9.52 -2.28,14.11 -4.51,12.99 -13.71,24.11 -24.08,32.92 -9.98,8.83 -20.92,15.69 -31.97,23.05 -17.14,11.2 -33.84,22.22 -49.43,35.57 -8.82,7.69 -17.48,15.36 -24.79,24.54 -13.17,0.32 -26.62,-4.38 -38.03,-10.7 -12.12,-6.78 -23.48,-16.11 -34.59,-24.42 -14.47,-11.05 -29.15,-21.35 -45.48,-29.51 -25.690003,-12.76 -54.120003,-20.36 -82.640003,-23.11 -4.17,-0.55 -9.31,-0.95 -12.86,-3.4 -3.1100003,-2.11 -3.6800003,-6.43 -4.0700003,-9.87 -0.65,-9.33 -0.72,-18.72 -0.3,-28.07 0.18,-2.06 0.11,-4.44 1.09,-6.28 4.5600003,-0.93 9.5200003,-0.19 14.1800003,-0.3 4.63,0.18 9.53,-0.36 14.07,0.6 2.82,0.49 3.2,4.16 4.75,6.24 4.01,6.5 12.28,12.09 19.87,13.04 -2.13,-2.72 -5.04,-4.16 -7.7,-6.26 -4.11,-3.17 -7.35,-7.22 -9.79,-11.79 9.7,-4.83 19.17,-10.03 27.97,-16.4 9.25,4.05 19.17,6.75 28.980003,9.06 11.36,2.49 24.04,5.31 35.67,4.07 -3.39,-1.59 -6.93,-1.84 -10.6,-2.12 -5.63,-0.81 -11.39,-1.87 -16.94,-3.14 -2.08,-0.36 -3.29,-2.51 -4.61,-4 4.1,0.44 8.12,1.29 12.23,1.61 2.98,0.23 5.5,1.23 8.29,-0.4 -4.93,-1.8 -9.92,-1.86 -15.01,-3.06 -3.89,-1.03 -7.48,-0.77 -9.91,-4.5 4.22,0.55 8,1.78 12.21,1.61 -4.16,-4.1 -12.33,-1.75 -15.820003,-7.08 5.460003,0.57 10.430003,2.3 15.980003,1.46 5.7,3.19 10.02,7.35 17.01,7.83 -2.76,-2.6 -6.07,-3.52 -9.24,-5.56 -4.63,-2.9 -8.94,-6.35 -13.12,-9.86 -12.500003,-11.79 -25.450003,-24.88 -34.280003,-39.7 -0.86,-1.42 -2.01,-2.54 -3.19,-3.69 0.21,1.68 0.25,3.29 1.06,4.81 3.51,7.27 8.46,13.24 13.6,19.37 1.6,1.81 1.36,3.81 2.04,5.99 0.65,1.54 1.65,2.95 2.52,4.36 -4.84,-1.97 -10.62,-3.37 -14.74,-6.57 3.8,0.64 7.82,2.92 11.54,1.78 -4.39,-2.26 -10.07,-3.23 -13.76,-6.5 3.64,0.49 7,1.74 10.74,1.64 -1.02,-0.74 -2.08,-1.39 -3.2,-1.93 -7.12,-2.93 -14.1,-6.13 -21.31,-8.88 1.03,-0.04 2.25,-0.26 3.22,0.11 5.42,1.96 10.49,4.39 16.21,5.71 -0.81,-1.49 -1.56,-2.2 -3.08,-2.92 -4.99,-2.43 -10.23,-4.35 -15.25,-6.71 -1.62,-0.65 -1.89,-3.1 -2.6,-4.54 4.65,1.88 8.86,5.08 13.84,5.07 -4.44,-3.89 -10.79,-5.34 -15.19,-9.08 3.53,0.98 6.72,2.77 10.24,3.78 -1.91,-3.42 -6.6,-4.58 -9.91,-6.46 -2.97,-13.71 -4.65,-27.72 -5.55,-41.71 -1.04,-12.56 -0.9,-25.28 0.24,-37.83 1.83,-24.87 7.53,-49.18 18.85,-71.490001 11.28,-21.79 27.55,-40.65 48.770003,-53.23 17.57,-10.4 37.45,-16.62 57.89,-17.4500001 z"
     id="path18"
     inkscape:connector-curvature="0"
     style="fill:#ffffff" />
  <path
     d="m 139.49914,30.453999 c 1.42,-0.21 2.48,0.41 3.69,1.05 -3.86,1.53 -7.99,1.95 -11.85,3.5 -11.09,4.36 -21.21,11 -29.93,19.1 -4.860003,4.13 -9.520003,8.45 -13.570003,13.4 -6.88,7.63 -12.76,15.87 -16.49,25.51 -1.15,2.58 -1.4,5.08 -4.1,6.59 3.28,-15.6 12.12,-28.38 23.01,-39.69 9.16,-9.33 18.540003,-17.9 30.510003,-23.49 5.8,-2.68 12.28,-5.58 18.73,-5.97 z"
     id="path24"
     inkscape:connector-curvature="0"
     style="fill:#070707" />
  <path
     d="m 207.86914,44.413999 c 42.89,14.57 76.16,55.52 79.15,101.070001 0.7468,6.24373 1.04491,24.9397 0.59,33.67 -1.82,20.84 -6.53,40.91 -16.99,59.2 -11.06,18.69 -27.91,33.76 -48.14,41.85 -8.07,3.09 -16.52,5.42 -24.99,7.11 -3.19,0.6 -6.09,2.37 -9.25,2.38 -6.05,0.05 -11.7,1.64 -17.8,0.95 -5.67,-0.8 -11.3,-0.53 -16.87,-2.06 -11.81,-2.96 -24.25,-6.52 -34.21,-13.73 -18.62,-12.6 -31.750003,-30.67 -41.270003,-50.79 -8.37,-17.65 -13.66,-36.98 -14.78,-56.5 -1.36,-13.49 0.54,-26.43 2.9,-39.69 4.94,-21.28 13.95,-41.970001 28.7,-58.310001 14.310003,-15.85 33.820003,-26.8 54.920003,-30.34 19.25,-3.46 39.62,-1.14 58.04,5.19 z"
     id="path26"
     inkscape:connector-curvature="0"
     style="fill:#040405"
     sodipodi:nodetypes="cccccccccccccccc" />
  <path
     d="m 178.18914,45.983999 c 24.93,2.37 48.83,11.57 67.56,28.41 8.83,8.13 16.4,17.46 21.78,28.240001 8.02,15.86 11.15,34.64 11.53,52.27 1.09,7.93 -0.29,15.45 -0.41,23.37 -0.09,7.72 -1.55,15.62 -3.21,23.15 -3.05,16.21 -9.25,32.18 -19.16,45.47 -8.36,11.25 -19.34,20.81 -31.91,27.07 -19.35,10.51 -42.47,13.31 -64.18,12.24 -6.24,-0.45 -11.54,-2.73 -17.29,-4.96 -20.34,-8.56 -38.05,-23.43 -50.010003,-41.97 -12.38,-18.63 -19.52,-40.26 -22.16,-62.39 -1.58,-12.38 -1.37,-24.87 0.62,-37.19 4.27,-33.12 22.92,-65.620001 52.600003,-82.090001 16.33,-9.1 35.65,-13.05 54.24,-11.62 z"
     id="path30"
     inkscape:connector-curvature="0"
     style="fill:#fefefe" />
  <path
     d="m 154.27914,57.053999 c 7.69,-1.38 15.23,-0.8 22.97,-0.66 7.28,0.2 14.43,1.65 21.26,4.19 19.11,6.71 36.37,18.06 49.23,33.8 13.81,16.380001 21.93,37.140001 23.28,58.490001 2.43,25.6 -1.39,52.77 -12.87,75.95 -3.88,6.32 -8.11,12.4 -13.16,17.86 -6.15,7.01 -13.43,11.72 -20.94,17.04 -4.08,2.83 -9.61,3.92 -14.29,5.67 -5.39,1.98 -10.95,3.27 -16.53,4.55 -9.32,2.77 -19.42,3.48 -29.07,2.44 -9.06,-0.15 -16.96,-3.18 -25.43,-5.95 -5.58,-1.78 -10.86,-5 -15.66,-8.33 -17.77,-12.4 -30.320003,-31.96 -38.380003,-51.78 -6.59,-16.89 -10.22,-35.27 -9.67,-53.42 0.82,-10.38 2.2,-21.07 5.23,-31.05 5.16,-16.89 13.47,-33.250001 26.370003,-45.550001 12.63,-12.79 29.9,-20.93 47.66,-23.25 z"
     id="path32"
     inkscape:connector-curvature="0"
     style="fill:#040406" />
  <path
     d="m 183.29914,75.293999 c 4.96,-0.35 9.98,-0.2 14.95,-0.18 2.14,-0.07 3.88,0.74 5.77,1.63 -2.44,2.73 -5.07,5.28 -7.75,7.77 -16.78,-4.21 -33.99,-1.75 -49.76,4.94 -0.82,-0.71 -1.65,-1.42 -2.48,-2.12 12.35,-6.17 25.56,-10.37 39.27,-12.04 z"
     id="path36"
     inkscape:connector-curvature="0"
     style="fill:#fefefe" />
  <path
     d="m 219.17914,80.143999 c 4.35,0.39 8.53,2.09 11.81,4.99 6.33,5.31 12.17,11.35 16.91,18.120001 6.79,9.79 11.14,21.23 13.46,32.87 0.75,4.26 1.38,8.97 -0.98,12.86 -4.33,5.55 -9.45,10.59 -14.1,15.96 -4.05,4.64 -8.61,8.74 -12.38,13.63 -4.34,4.37 -8.06,9.25 -12.33,13.68 -20.77,23.25 -41.88,46.1 -62.97,69.05 -1.2,1.27 -2.43,2.36 -4.18,2.76 -4.01,1.15 -7.75,2.38 -11.97,1.69 -3.8,-0.8 -7.44,-2.48 -10.93,-4.15 -16.94,-10.41 -29.79,-25.92 -38.230003,-43.82 -2.15,-4.87 -4.77,-9.18 -3.97,-14.73 0.84,-4.41 2.43,-9.07 6.12,-11.92 20.720003,-19.57 40.480003,-40.22 60.860003,-60.16 2.6,-2.8 5.49,-5.16 8.39,-7.63 4.03,-4.6 8.3,-9.01 12.59,-13.38 8.8,-7.83 16.9,-16.480001 25.46,-24.580001 1.65,-1.57 3.34,-2.39 5.57,-2.82 3.64,-0.67 7.24,-2.15 10.87,-2.42 z"
     id="path38"
     inkscape:connector-curvature="0"
     style="fill:#fdfdfe" />
  <path
     d="m 127.17914,83.023999 c 7.12,0.57 12.06,5.33 16.92,10.03 7.59,6.990001 15.34,13.820001 22.89,20.850001 -1.29,1.29 -2.59,2.57 -3.89,3.85 -9.14,-8.15 -17.34,-16.57 -26.99,-23.740001 -4.27,-3.16 -9.47,-3.71 -14.59,-2.86 -4.94,1.79 -9.44,5.25 -13.29,8.78 C 98.669137,109.204 93.169137,121.184 90.289137,134.034 c -1.27,6.18 -1.77,12.09 0.77,18.03 1.46,2.11 3.17,4.2 5.11,5.88 4.680003,3.89 8.730003,8.58 13.150003,12.8 -1.44,1.44 -2.87,2.89 -4.31,4.33 -5.320003,-5.34 -10.440003,-10.87 -15.840003,-16.12 -5.13,-5.08 -5.73,-12.27 -5.45,-19.11 0.08,-5.66 2.35,-10.16 4.01,-15.41 3.65,-13.37 11.82,-25.780001 21.100003,-35.930001 4.19,-4.96 12.3,-5.78 18.35,-5.48 z"
     id="path40"
     inkscape:connector-curvature="0"
     style="fill:#fdfdfe" />
  <path
     d="m 219.86914,88.073999 c 2.41,1.21 4.55,2.94 6.82,4.39 3.81,2.24 6.55,6.07 9.78,9.200001 5.31,5.4 8.86,11.8 12.95,18.06 2.99,3.56 3.1,7.49 4.24,11.78 2.88,6.56 1.86,13.79 -2.23,19.56 -8.71,9.64 -17.58,19.1 -26.32,28.74 -21.11,22.9 -41.6,46.4 -62.93,69.06 -3.23,3.43 -5.67,6.99 -10.3,8.67 -4.56,2.42 -9.39,1.63 -13.94,-0.34 -8.28,-2.82 -14.67,-8.15 -20.9,-14.1 -5.99,-6.39 -11.7,-13.45 -15.75,-21.24 -2.650003,-4.9 -3.950003,-10.56 -4.890003,-16 0.56,-3.46 1.33,-7.26 4.090003,-9.67 15.41,-15.6 31.05,-30.97 46.49,-46.54 11.94,-12.06 24.04,-23.95 36.28,-35.71 6.97,-7.94 14.7,-16.770001 23.95,-22.060001 3.5,-2.27 8.4,-4.79 12.66,-3.8 z"
     id="path42"
     inkscape:connector-curvature="0"
     style="fill:#040406" />
  <path
     d="m 133.01914,96.443999 c -5.33,4.110001 -10.81,7.860001 -15.48,12.770001 -5.71,5.54 -10.03,12 -14.4,18.57 1.77,-4.84 3.84,-9.91 6.85,-14.12 5.39,-7.23 12,-12.45 18.99,-17.960001 -2.02,-0.24 -4.05,-0.45 -6.07,-0.72 3.7,-0.87 6.66,0.22 10.11,1.46 z"
     id="path44"
     inkscape:connector-curvature="0"
     style="fill:#c9c9cb" />
  <path
     d="m 185.22914,95.523999 c -2.01,2.03 -3.94,4.44 -6.37,5.970001 -5.57,0.01 -11.09,-0.09 -16.66,0.23 -3.05,0.55 -5.64,-3.520001 -7.78,-5.190001 10.06,-2.78 20.59,-3.32 30.81,-1.01 z"
     id="path46"
     inkscape:connector-curvature="0"
     style="fill:#ffffff" />
  <path
     d="m 213.00914,97.403999 c 4.7,1.51 7.27,7.730001 10.42,11.310001 9.49,13.16 16.25,28.15 19.85,43.97 -0.96,1.07 -1.92,2.14 -2.88,3.21 -1.25,-5.39 -1.86,-11.29 -3.48,-16.61 -0.42,-1.49 -1.4,-2.2 -2.6,-3.07 1.39,7.89 0.88,15.66 0.88,23.67 0.12,2.09 -1.65,3.39 -2.75,5 1.72,-14.2 1.1,-30.1 -4.89,-43.31 -3.52,-8.49 -9.92,-16.12 -14.55,-24.170001 z"
     id="path48"
     inkscape:connector-curvature="0"
     style="fill:#fefeff" />
  <path
     d="m 284.91914,99.113999 c 4.1,5.030001 5.63,12.360001 7.68,18.430001 3.38,9.78 5.86,19.8 6.86,30.12 1.17,7.02 0.66,14.14 1.35,21.24 -0.26,12.4 -0.85,24.53 -3.95,36.6 -1.2,7.52 -2.93,14.33 -5.54,21.49 -2.63,10.85 -8.29,20.16 -15.24,28.77 -6.17,7.39 -13.17,14.38 -21.09,19.89 -4.8,3.36 -10.03,5.11 -15.16,7.83 -7.38,3.75 -15.07,6.81 -23.09,8.91 -1.73,0.5 -3.48,0.51 -5.27,0.64 2.13,-2.11 4.75,-2.49 7.45,-3.43 7.66,-2.55 15.04,-6.01 22.13,-9.87 8,-4.44 15.7,-9.29 21.82,-16.2 11.4,-11.88 20.81,-25.05 26.27,-40.71 4.29,-14.39 6.46,-29.03 8.03,-43.93 0.16,-6.34 0.04,-12.69 0.05,-19.04 -0.98,-17.92 -5.16,-34.64 -10.16,-51.79 -0.92,-2.98 -2.07,-5.77 -2.14,-8.950001 z"
     id="path50"
     inkscape:connector-curvature="0"
     style="fill:#040404" />
  <path
     d="m 139.13914,102.744 c 1.55,1.21 2.99,2.51 4.44,3.83 -10.96,4.36 -19.67,9.7 -28.57,17.42 5.94,-9 14.62,-16.27 24.13,-21.25 z"
     id="path52"
     inkscape:connector-curvature="0"
     style="fill:#fcfcfd" />
  <path
     d="m 201.01914,102.514 c 9.96,6.8 16.74,16.87 20.27,28.32 -2.17,-3.52 -4,-7.12 -6.68,-10.31 -4.85,-6.19 -11.12,-10.52 -17.95,-14.27 1.45,-1.27 2.85,-2.55 4.36,-3.74 z"
     id="path54"
     inkscape:connector-curvature="0"
     style="fill:#fcfcfe" />
  <path
     d="m 152.04914,114.524 c 2.55,2.04 4.92,4.32 7.32,6.52 -17.43,5.49 -34.17,16.18 -44.65,31.36 -2.53,3.49 -4.51,7.27 -7.15,10.67 -1.3,-4.17 -2.54,-10.05 -0.17,-14.02 9.23,-17.22 25.9,-29.53 44.65,-34.53 z"
     id="path58"
     inkscape:connector-curvature="0"
     style="fill:#fdfdfd" />
  <path
     d="m 188.16914,115.034 c 3.65,1.44 6.94,3.42 10.29,5.44 -5,-0.95 -9.97,-1.16 -15.04,-1.05 1.57,-1.47 3.11,-3 4.75,-4.39 z"
     id="path60"
     inkscape:connector-curvature="0"
     style="fill:#fcfcfd" />
  <path
     d="m 240.02914,115.074 c 3.53,4.5 5.52,10.38 7.22,15.79 1.47,4.61 1.7,9.47 3.41,13.99 -0.54,0.48 -1.08,0.97 -1.61,1.45 -1.87,-7.99 -3.9,-15.91 -6.62,-23.66 -0.88,-2.51 -1.85,-4.95 -2.4,-7.57 z"
     id="path62"
     inkscape:connector-curvature="0"
     style="fill:#d8d8da" />
  <path
     d="m 46.959137,117.104 c -0.32,3.63 -1.15,7.13 -1.76,10.71 -1.55,8.96 -2.51,17.94 -3.07,27.01 -1.09,10.64 0.16,21.45 -0.75,32.09 -0.35,5.09 -2.63,9.23 -4.67,13.77 2.43,0.17 4.86,0.3 7.28,0.59 -1.89,3.19 -5.96,2.14 -9.08,2.7 0.54,0.66 1.08,1.31 1.62,1.96 2.34,0 4.68,-0.08 7.02,-0.13 0.27,1.36 0.53,2.72 0.79,4.09 -4.5,0.03 -8.97,0.13 -13.45,-0.35 -1.12,-10.49 -2.26,-21.29 -1.21,-31.82 0.55,-16.63 3.11,-34.21 9.82,-49.55 2.08,-4.16 3.45,-8.42 7.46,-11.07 z"
     id="path64"
     inkscape:connector-curvature="0"
     style="fill:#fefefe" />
  <path
     d="m 177.70914,125.164 c 6.81,3.94 12.07,9.18 17.82,14.45 10.98,9.81 21.91,19.7 32.77,29.65 -1.33,1.38 -2.65,2.75 -3.97,4.14 -9.63,-8.25 -18.36,-17.4 -28.2,-25.38 -7.18,-6.64 -14.47,-13.16 -21.6,-19.85 1.05,-1.01 2.07,-2.05 3.18,-3.01 z"
     id="path66"
     inkscape:connector-curvature="0"
     style="fill:#fdfdfe" />
  <path
     d="m 314.12914,126.124 c 3.32,2.84 4.65,6.49 6.43,10.35 6.62,15.35 9.05,32.83 9.54,49.43 0.64,5.7 0.55,11.4 -0.03,17.09 -0.26,8.38 -1.43,16.64 -2.88,24.88 -1.51,7.97 -3.31,16.19 -6.54,23.64 -2.48,1.2 -4.4,-0.69 -6.58,-1.7 0.98,-3.85 2.02,-7.65 2.53,-11.6 6.39,-34.07 6.13,-69.55 -1.08,-103.47 -0.63,-2.85 -1.17,-5.71 -1.39,-8.62 z"
     id="path68"
     inkscape:connector-curvature="0"
     style="fill:#fefefe" />
  <path
     d="m 152.63914,128.004 c -5.48,5.98 -12.06,10.75 -17.3,17 -7.52,7.74 -15.21,15.56 -23.32,22.67 -1.69,-3.66 1.31,-5.99 3,-8.98 9.08,-13.78 22.42,-24.37 37.62,-30.69 z"
     id="path70"
     inkscape:connector-curvature="0"
     style="fill:#fcfcfc" />
  <path
     d="m 172.70914,133.394 c 3.2,2.25 5.89,5.26 8.84,7.82 -14.44,1.61 -28.11,8.34 -37.11,19.91 -3.24,4.22 -5.38,9.23 -4.17,14.63 1.39,6.35 7.09,10.95 12.88,13.23 8.34,3.54 17.54,2.82 26.18,0.92 6.27,-1.44 11.15,-5.95 15.59,-10.32 3.15,-3.1 4.72,-6.95 6.13,-11.05 0.43,2.17 1.42,4.77 0.72,6.93 -0.98,4.48 -4.88,7.93 -8.34,10.64 -8.27,5.92 -17.51,10.16 -27.86,10.11 1.21,2.33 3.4,1.77 5.63,1.98 10.38,0.3 19.94,-5.53 28.18,-11.22 -4.46,4.87 -9.36,9.09 -15.6,11.51 -15.01,6.31 -34.06,0.48 -43.26,-12.88 -3.54,-5.24 -5.69,-11.94 -4.9,-18.29 0.86,-1.39 2.12,-2.59 3.25,-3.75 9.43,-9.26 18.77,-18.61 28.17,-27.9 1.54,-1.52 3.41,-2.82 5.67,-2.27 z"
     id="path72"
     inkscape:connector-curvature="0"
     style="fill:#fefeff" />
  <path
     d="m 205.11914,136.544 c 3.07,2.55 4.56,5.57 5.52,9.4 -2.35,-2.86 -4.22,-5.94 -5.52,-9.4 z"
     id="path74"
     inkscape:connector-curvature="0"
     style="fill:#5f5f61" />
  <path
     d="m 94.969137,137.334 c 0.38,3.98 0.6,7.87 -0.3,11.81 -2.49,-4.1 -1.51,-7.76 0.3,-11.81 z"
     id="path76"
     inkscape:connector-curvature="0"
     style="fill:#e0e0e2" />
  <path
     d="m 192.46914,151.764 c 3.81,2.14 6.88,5.83 10.09,8.78 1.72,1.48 1.37,3.68 1.8,5.76 -4.63,-6.12 -10.25,-10.92 -17.94,-12.54 -7.77,-2.26 -16.73,1.05 -23.55,4.78 -4.81,2.74 -10.41,6.86 -11.39,12.69 -0.76,3.89 1.01,6.73 2.58,10.09 -3.06,-1.86 -6.94,-3.81 -7.87,-7.59 -0.89,-4.08 1.04,-7.34 3.56,-10.33 5.31,-6 12.88,-9.45 20.54,-11.36 7.47,-1.68 14.72,-2.66 22.18,-0.28 z"
     id="path82"
     inkscape:connector-curvature="0"
     style="fill:#fefefe" />
  <path
     d="m 189.50914,158.324 c -4.95,1.31 -10.2,2.74 -14.8,5.06 -5.16,4.7 -10.3,8.83 -12.96,15.54 -3.47,-1.99 -5.69,-4.49 -5.25,-8.74 0.97,-4.82 6.56,-8.33 10.65,-10.36 7.04,-3.6 14.9,-3.97 22.36,-1.5 z"
     id="path84"
     inkscape:connector-curvature="0"
     style="fill:#fdfdfe" />
  <path
     d="m 256.00914,160.414 c 0.25,3.73 0.58,7.44 0.9,11.16 0.45,5.62 -0.37,10.96 -0.78,16.6 -1.19,-0.94 -2.36,-1.9 -3.55,-2.84 0.42,-6.2 -0.22,-12.3 -0.36,-18.47 -0.38,-2.53 2.42,-4.58 3.79,-6.45 z"
     id="path86"
     inkscape:connector-curvature="0"
     style="fill:#fdfdfd" />
  <path
     d="m 54.909137,162.444 c 0.57,4.43 1.24,8.85 1.52,13.31 1.54,11.48 3.69,22.93 6.89,34.07 1.15,4.03 2.78,7.84 3.55,11.9 -1.18,-1.14 -2.29,-2.01 -2.81,-3.65 -4.87,-12.51 -7.69,-26.08 -9.68,-39.33 -0.37,-4.87 -1.55,-9.46 -1.13,-14.38 0.55,-0.64 1.1,-1.29 1.66,-1.92 z"
     id="path88"
     inkscape:connector-curvature="0"
     style="fill:#141416" />
  <path
     d="m 184.16914,169.534 c 0.23,6.05 -4.31,10.44 -10.06,11.21 -1.93,-0.12 -3.96,0.72 -4.38,-1.81 3.07,-4.78 9.19,-7.74 14.44,-9.4 z"
     id="path90"
     inkscape:connector-curvature="0"
     style="fill:#fefefe" />
  <path
     d="m 248.39914,169.254 c -0.08,3.94 -0.15,7.86 -0.54,11.78 -1.31,-1.42 -4.1,-3.02 -3.87,-5.17 -0.54,-2.64 2.9,-4.82 4.41,-6.61 z"
     id="path92"
     inkscape:connector-curvature="0"
     style="fill:#fefeff" />
  <path
     d="m 238.73914,179.904 c 4.33,1.9 7.66,6.22 11.23,9.26 2.76,2.86 6.92,5.19 7.73,9.24 0.94,3.82 0.66,8.19 0.16,12.06 -6.35,21.97 -20.7,41.35 -41.37,51.69 -5.07,2.38 -9.89,1.77 -15.32,1.8 -4.17,-0.09 -9.1,-0.59 -12.05,-3.93 -3.95,-4.04 -7.88,-8.12 -11.86,-12.14 1.49,-1.69 3.03,-3.33 4.5,-5.04 4.78,4.61 8.2,9.94 14.83,11.71 7.29,1.63 15.17,0.95 21.91,-2.38 11.68,-5.94 21.1,-15.63 26.29,-27.71 2.5,-6.44 6,-11.36 6.68,-18.38 0.92,-3.9 -0.42,-8.31 -3.41,-10.99 -4.19,-4.01 -8.63,-7.77 -12.82,-11.78 1.15,-1.15 2.28,-2.34 3.5,-3.41 z"
     id="path94"
     inkscape:connector-curvature="0"
     style="fill:#fefefe" />
  <path
     d="m 130.21914,180.414 c 2.14,3.5 4.05,7.16 5.96,10.79 -1.63,-1.4 -3.32,-2.88 -4.71,-4.51 -1.68,-1.55 -1.09,-4.21 -1.25,-6.28 z"
     id="path96"
     inkscape:connector-curvature="0"
     style="fill:#a6a6a7" />
  <path
     d="m 120.41914,181.924 c 16.9,16.45 33.55,33.26 50.23,49.95 -1.49,1.65 -2.98,3.29 -4.48,4.93 -16.89,-16.7 -33.49,-33.67 -50.15,-50.6 1.46,-1.43 2.89,-2.89 4.4,-4.28 z"
     id="path98"
     inkscape:connector-curvature="0"
     style="fill:#fdfdfd" />
  <path
     d="m 112.56914,189.844 c 4.16,3.33 7.65,7.53 11.55,11.17 4.46,4.09 6.85,9.61 11.21,13.8 4.39,4.77 10.4,7.13 14.48,12.27 -3.93,-0.17 -9.07,0.03 -12.47,-2.26 -11.83,-8.04 -21.6,-19 -28.22,-31.67 1.12,-1.12 2.24,-2.28 3.45,-3.31 z"
     id="path100"
     inkscape:connector-curvature="0"
     style="fill:#fdfdfd" />
  <path
     d="m 234.67914,189.984 c 0.98,1.08 2.94,1.78 2.09,3.51 -8.64,21.39 -27.63,37.61 -49.83,43.58 2.55,-2.93 5.19,-5.8 7.72,-8.75 2.65,-3.4 7.29,-4.57 10.97,-7.02 12.15,-7.66 21.4,-19.35 29.05,-31.32 z"
     id="path102"
     inkscape:connector-curvature="0"
     style="fill:#fdfdfe" />
  <path
     d="m 240.86914,196.094 c 0.92,0.56 1.81,1.17 2.69,1.8 -1.37,4.09 -2.8,8.77 -6.23,11.59 0.69,-4.55 2.39,-8.93 3.54,-13.39 z"
     id="path104"
     inkscape:connector-curvature="0"
     style="fill:#e5e5e6" />
  <path
     d="m 143.90914,198.814 c 3.77,2.15 7.35,4.46 11.46,5.94 4.32,1.77 8.95,1.99 13.29,3.65 -5.6,0.32 -11.66,-0.16 -17.03,-1.82 -2.95,-2.1 -5.43,-4.98 -7.72,-7.77 z"
     id="path106"
     inkscape:connector-curvature="0"
     style="fill:#c3c3c5" />
  <path
     d="m 190.49914,210.264 c -2.71,2.89 -5.22,6.14 -8.26,8.69 -3.8,2 -8.87,2.07 -13.08,2.21 -4.6,0.59 -6.94,-4.12 -10.03,-6.74 10.58,1.48 21.46,-0.38 31.37,-4.16 z"
     id="path108"
     inkscape:connector-curvature="0"
     style="fill:#fefeff" />
  <path
     d="m 44.499137,212.004 c 0.2,1.07 0.36,2.15 0.53,3.22 -4.44,-0.49 -11.08,0.18 -14.6,-2.91 4.64,-0.62 9.4,-0.5 14.07,-0.31 z"
     id="path110"
     inkscape:connector-curvature="0"
     style="fill:#fdfdfe" />
  <path
     d="m 244.17914,211.214 c -4.65,15.2 -15.4,29.5 -29.75,36.71 -0.83,-0.5 -1.67,-0.99 -2.51,-1.47 10.3,-7.63 19.57,-16.37 26.91,-26.93 1.88,-2.74 3.32,-5.68 5.35,-8.31 z"
     id="path112"
     inkscape:connector-curvature="0"
     style="fill:#ffffff" />
  <path
     d="m 32.009137,216.234 c 4.42,0.6 8.84,1.11 13.28,1.45 0.3,1.79 0.59,3.58 0.88,5.37 -4.61,-0.54 -9.28,-1.07 -13.77,-2.23 -0.15,-1.54 -0.32,-3.05 -0.39,-4.59 z"
     id="path114"
     inkscape:connector-curvature="0"
     style="fill:#fefdfe" />
  <path
     d="m 32.519137,223.844 c 4.71,0.74 9.16,1.07 13.93,1.24 l 0.92,2.28 c -4.63,-0.03 -11.47,0.1 -14.85,-3.52 z"
     id="path118"
     inkscape:connector-curvature="0"
     style="fill:#e8e8e9" />
  <path
     d="m 33.979137,228.594 c 4.53,0.69 8.97,1.47 13.58,1.45 0.2,0.98 0.42,1.95 0.66,2.93 -4.56,0.22 -8.75,-0.14 -13.04,-1.76 -0.41,-0.87 -0.81,-1.74 -1.2,-2.62 z"
     id="path120"
     inkscape:connector-curvature="0"
     style="fill:#fcfcfe" />
  <path
     d="m 112.83914,229.964 c 2.94,1.79 5.66,3.93 8.61,5.72 10.36,6.37 21.91,10.85 33.73,13.63 -0.97,1 -1.94,2.01 -2.91,3.01 -6.41,-0.75 -12.67,-2.22 -18.58,-4.88 -3.97,-1.84 -7.87,-2.84 -11.05,-5.93 -3.61,-3.51 -7.03,-7.34 -9.8,-11.55 z"
     id="path122"
     inkscape:connector-curvature="0"
     style="fill:#fcfcfe" />
  <path
     d="m 151.87914,232.014 c 1.07,-0.76 4.4,-0.09 4.04,1.59 -0.65,0.61 -4.65,-0.49 -4.04,-1.59 z"
     id="path124"
     inkscape:connector-curvature="0"
     style="fill:#bcbcbd" />
  <path
     d="m 35.459137,235.064 c 4.47,-0.05 8.71,0.69 13.16,-0.2 0.32,1.54 0.61,3.09 0.88,4.64 -4.81,-0.69 -10.59,-0.39 -14.04,-4.44 z"
     id="path126"
     inkscape:connector-curvature="0"
     style="fill:#fefeff" />
  <path
     d="m 294.04914,238.254 c 0.96,9.55 -1.78,19.58 -3.44,28.97 -1.54,6.03 -2.56,14.3 -7.59,18.47 -3.68,3.41 -8.34,5.93 -12.78,8.22 -13.25,6.52 -27.08,11.99 -40.96,17.01 -1.83,0.71 -3.7,0.96 -5.65,1.11 1.23,-1.13 2.45,-2.11 4.01,-2.73 6.96,-2.95 13.86,-6.03 20.66,-9.33 9.01,-4.38 17.93,-8.26 26.5,-13.51 3.52,-2.2 6.68,-4.89 10.32,-6.93 2.25,-9.81 3.28,-19.91 4.72,-29.87 -6.64,9.97 -15.69,18.43 -25.05,25.8 -3.26,2.43 -6.21,4.79 -10.22,5.85 2.16,-3.35 5.9,-5.56 8.83,-8.22 8.43,-8.04 16.62,-16.13 23.23,-25.79 2.55,-3.35 3.72,-6.83 7.42,-9.05 z"
     id="path128"
     inkscape:connector-curvature="0"
     style="fill:#040404" />
  <path
     d="m 36.859137,240.304 c 4.42,0.5 8.74,1.18 13.21,0.76 0.3,1.32 0.6,2.63 0.9,3.95 -4.74,-1.27 -10.71,-0.92 -14.11,-4.71 z"
     id="path130"
     inkscape:connector-curvature="0"
     style="fill:#fefeff" />
  <path
     d="m 205.70914,242.654 c -2.95,3.81 -7.67,5.08 -12.01,6.68 -0.75,-0.82 -1.51,-1.63 -2.26,-2.44 4.81,-1.24 9.39,-3.36 14.27,-4.24 z"
     id="path132"
     inkscape:connector-curvature="0"
     style="fill:#e8e8e9" />
  <path
     d="m 38.869137,245.384 c 4.31,0.52 8.51,1.54 12.87,1.74 0.2,1.01 0.41,2.01 0.63,3.01 -5.01,-0.37 -9.78,-1.07 -13.5,-4.75 z"
     id="path134"
     inkscape:connector-curvature="0"
     style="fill:#e7e7e8" />
  <path
     d="m 59.679137,249.184 c 4.09,1.9 8.78,3.49 12.16,6.53 -3.38,-0.83 -6.66,-2.06 -9.76,-3.65 -1.39,-0.55 -1.73,-1.67 -2.4,-2.88 z"
     id="path136"
     inkscape:connector-curvature="0"
     style="fill:#cececf" />
  <path
     d="m 43.539137,251.294 c 3.22,0.36 6.4,0.66 9.64,0.7 0.1,1.11 0.2,2.21 0.3,3.32 -3.55,-0.83 -6.93,-1.9 -9.94,-4.02 z"
     id="path138"
     inkscape:connector-curvature="0"
     style="fill:#eceaec" />
  <path
     d="m 175.91914,252.234 c -0.95,1.17 -1.98,2.29 -3.01,3.4 2.75,0.16 5.16,0.23 7.63,1.64 -4.08,1.32 -7.95,0.83 -12.14,0.59 2.45,-2.07 3.88,-6.24 7.52,-5.63 z"
     id="path140"
     inkscape:connector-curvature="0"
     style="fill:#cbcbcc" />
  <path
     d="m 312.55914,253.734 c 2.45,0.55 4.88,1.17 7.24,2.02 -2.7,0.08 -6.37,1.64 -7.24,-2.02 z"
     id="path142"
     inkscape:connector-curvature="0"
     style="fill:#e8e8ea" />
  <path
     d="m 62.359137,255.044 c 1.02,-0.64 2.69,0.41 3.28,1.27 -0.05,1.8 -3.91,0.13 -3.28,-1.27 z"
     id="path144"
     inkscape:connector-curvature="0"
     style="fill:#d1d1d2" />
  <path
     d="m 45.429137,256.394 c 2.87,0.19 5.73,0.5 8.62,0.52 0.47,0.69 0.94,1.38 1.4,2.07 -3.52,-0.64 -6.84,-0.79 -10.02,-2.59 z"
     id="path146"
     inkscape:connector-curvature="0"
     style="fill:#d6d5d8" />
  <path
     d="m 67.229137,257.044 c 1.23,-0.18 5.17,1.21 4.92,2.76 -1.04,0.47 -5.14,-1.46 -4.92,-2.76 z"
     id="path148"
     inkscape:connector-curvature="0"
     style="fill:#dcdcde" />
  <path
     d="m 62.769137,259.124 c 3.62,0.64 4.23,2.09 5.86,5.1 -3.06,-1.29 -5.19,-1.34 -5.86,-5.1 z"
     id="path150"
     inkscape:connector-curvature="0"
     style="fill:#d7d7d8" />
  <path
     style="fill:#a5a5a8;stroke-width:1"
     d="m 311.67883,258.83368 c 0.98001,0.82 1.98051,1.60057 3.02051,2.33056 1.05,-0.60999 2.05025,-1.31078 3.01025,-2.05077 -2.01,-0.11001 -4.01076,-0.24979 -6.03076,-0.27979 z m -0.0952,4.71826 c -0.44048,-0.0148 -0.91279,0.14424 -1.28467,0.53174 -0.99,1.78 1.07961,2.84101 2.34961,1.54102 0.72188,-1.16188 -0.0959,-2.04024 -1.06494,-2.07276 z"
     id="path152"
     inkscape:connector-curvature="0" />
  <path
     d="m 52.699137,261.044 c 1.08,-0.77 3.23,-0.45 3.61,0.97 -0.04,2.09 -4.62,0.76 -3.61,-0.97 z"
     id="path156"
     inkscape:connector-curvature="0"
     style="fill:#b7b6bb" />
  <path
     d="m 68.939137,261.634 c 3.38,1.22 6.11,1.84 7.47,5.54 -3.45,-1.29 -6.19,-1.6 -7.47,-5.54 z"
     id="path158"
     inkscape:connector-curvature="0"
     style="fill:#e4e4e6" />
  <path
     d="m 64.509137,265.614 c 2.69,0.75 4.78,1.48 6.57,3.75 -2.97,-0.52 -5.02,-0.94 -6.57,-3.75 z"
     id="path162"
     inkscape:connector-curvature="0"
     style="fill:#dbd8db" />
  <path
     d="m 77.749137,265.504 c 3.94,0.93 7.81,2.16 11.73,3.19 2.87,0.51 4.14,2.99 6.11,4.94 -4.92,-1.17 -9.72,-2.78 -14.42,-4.65 -1.81,-0.55 -2.3,-2.11 -3.42,-3.48 z"
     id="path164"
     inkscape:connector-curvature="0"
     style="fill:#ffffff" />
  <path
     d="m 72.439137,268.774 c 3.32,0.79 5.11,1.42 7.16,4.25 -2.94,-0.93 -5.63,-1.19 -7.16,-4.25 z"
     id="path166"
     inkscape:connector-curvature="0"
     style="fill:#e5e5e7" />
  <path
     d="m 66.339137,271.524 c 3.37,0.77 5.99,1.18 7.92,4.33 -3.03,-1.06 -6.09,-1.41 -7.92,-4.33 z"
     id="path168"
     inkscape:connector-curvature="0"
     style="fill:#e9e8ea" />
  <path
     d="m 75.599137,275.074 c 3.56,0.55 5.03,1.21 7.29,4.07 -2.63,-0.93 -5.93,-1.29 -7.29,-4.07 z"
     id="path170"
     inkscape:connector-curvature="0"
     style="fill:#eaeaeb" />
  <path
     d="m 68.189137,277.034 c 3.85,0.89 7.25,1.73 9.68,5.13 -3.51,-1.22 -7.29,-2.08 -9.68,-5.13 z"
     id="path172"
     inkscape:connector-curvature="0"
     style="fill:#e5e5e6" />
  <path
     d="m 84.679137,278.084 c 2.73,0.6 5.45,1.29 8.11,2.16 1.82,0.58 2.35,1.21 3.14,2.94 -3.74,-1.11 -9.22,-1.34 -11.25,-5.1 z"
     id="path174"
     inkscape:connector-curvature="0"
     style="fill:#e3e3e4" />
  <path
     d="m 78.579137,280.654 c 3.15,0.84 5.69,1.16 7.54,4.16 -3.56,-0.64 -5.31,-1.19 -7.54,-4.16 z"
     id="path176"
     inkscape:connector-curvature="0"
     style="fill:#e8e8e9" />
  <path
     d="m 70.919137,282.764 c 2.95,1.08 5.95,2.17 8.72,3.65 1.08,1.17 1.99,2.5 2.93,3.77 -2.69,-0.74 -5.4,-1.55 -7.97,-2.67 -2.09,-0.83 -2.65,-2.93 -3.68,-4.75 z"
     id="path178"
     inkscape:connector-curvature="0"
     style="fill:#ecebed" />
  <path
     d="m 88.469137,283.884 c 3.82,1.29 8.35,0.9 10.51,4.77 -3.03,-0.56 -6.06,-1.3 -8.98,-2.32 -0.52,-0.81 -1.03,-1.63 -1.53,-2.45 z"
     id="path180"
     inkscape:connector-curvature="0"
     style="fill:#ebebec" />
  <path
     d="m 83.089137,287.514 c 4.22,0.87 5.76,1.7 8.11,5.37 -1.78,-0.49 -3.65,-0.87 -5.34,-1.62 -1.27,-0.78 -2,-2.52 -2.77,-3.75 z"
     id="path182"
     inkscape:connector-curvature="0"
     style="fill:#eaeaec" />
  <path
     d="m 92.059137,290.234 c 2.82,0.62 5.76,1.18 8.450003,2.25 1.02,1.05 1.82,2.36 2.63,3.57 -2.18,-0.44 -4.420003,-0.84 -6.530003,-1.57 -1.83,-0.85 -3.21,-2.79 -4.55,-4.25 z"
     id="path184"
     inkscape:connector-curvature="0"
     style="fill:#e1e1e2" />
  <path
     style="fill:#040405;stroke-width:1"
     d="m 72.17396,295.8913 c -0.686415,0.0471 -1.075957,0.48877 -0.754395,1.7329 2.31,2.24 5.679608,3.48051 8.349608,5.27051 -2.540003,-0.73 -4.990313,-1.71108 -7.570313,-2.35107 -0.01,1.08 -0.0091,2.17049 -0.01905,3.25049 8.649998,5.38 18.08904,7.66918 27.769042,10.40917 11.849998,3.33 23.930688,5.59092 36.200688,6.44092 0.94999,-0.27 1.87956,-0.58018 2.80956,-0.93017 -9.12999,-2.92001 -19.42968,-3.21038 -28.42968,-6.88037 9.54999,1.34 18.99966,3.48045 28.65966,4.23047 9.15,1.35 18.71979,0.91051 28.02979,0.7705 4.19,-0.6 9.09071,-0.55002 12.72071,-2.77002 -8.54001,-0.51999 -17.14069,0.17002 -25.70069,-0.22998 -26.92,-2.42 -53.29967,-6.71103 -78.159665,-17.81103 -0.838125,-0.23625 -2.47362,-1.04522 -3.594727,-1.1294 -0.108998,-0.008 -0.21249,-0.01 -0.310545,-0.003 z m 10.929195,7.94531 c 1.194443,-0.0482 3.117128,0.9181 2.775878,1.91748 -0.829995,0.63 -3.929708,-0.47948 -3.449708,-1.70948 0.16125,-0.13125 0.39819,-0.19688 0.67383,-0.208 z m 25.656745,7.67138 c 0.95202,-0.0872 1.82355,0.9811 0.51855,1.7461 -1.1,0.1 -1.56944,-0.30022 -1.41944,-1.22022 0.25751,-0.34 0.58354,-0.49682 0.90089,-0.52588 z"
     id="path188"
     inkscape:connector-curvature="0" />
  <path
     d="m 277.45914,311.024 c 3.41,-0.76 5.78,2.67 7.85,4.79 -3.47,1.25 -6.39,2.59 -8.04,6.11 -1.83,3.07 -0.59,6.12 -0.4,9.46 -2.44,-1.7 -4.76,-3.14 -4.69,-6.49 0.22,-5.24 3.43,-7.89 6.58,-11.57 -5.07,1.64 -7.47,6.9 -8.39,11.76 -0.56,3.21 0.9,6.65 4.19,7.65 3.79,0.97 7.97,-1.39 10.95,-3.54 2.87,-2.1 4.06,-4.96 5.92,-7.85 0.92,5.77 -2.85,9.56 -7.32,12.44 -3.45,2.22 -7.67,3.15 -11.67,2.06 -4.81,-1.73 -7.27,-7.55 -5.62,-12.3 1.25,-5.19 5.3,-11.04 10.64,-12.52 z"
     id="path196"
     inkscape:connector-curvature="0"
     style="fill:#040406" />
  <path
     style="fill:#040406;stroke-width:1"
     d="m 90.919565,312.84393 c -0.6,1 -1.179983,2.0198 -1.72998,3.04981 -1.700002,3.46999 -3.829785,6.63013 -7.029787,8.89013 -2.979998,2.15 -5.891288,4.12016 -8.07129,7.16016 1.989997,2.5 3.640192,3.57013 6.700192,4.39013 7.29,2.02001 14.520472,3.43977 21.48047,6.50977 9.8,2.94 19.46971,6.2108 28.94971,10.0708 4.23,1.7 8.2609,4.41904 12.6709,5.26905 -1.15,-1.21001 -2.29,-2.36948 -3.75,-3.20948 -8.63001,-4.96 -17.76114,-8.61007 -27.16113,-11.83008 -1.67001,-0.52999 -3.10905,-1.32961 -4.51905,-2.34961 3.36,0.24 6.14908,1.55934 9.30908,2.56934 5.46,1.8 10.91053,3.69022 16.29053,5.72021 3.72,1.41 6.95029,3.12985 10.80029,4.08985 -1.36,-1.69 -2.83099,-3.12035 -4.77099,-4.11035 -6.92001,-3.74001 -14.60877,-6.33 -21.98877,-9 1.86,-3.52 3.66937,-6.70035 2.85937,-10.86036 -0.66,-4.48999 -2.60984,-8.26966 -7.08984,-9.90966 0.91,2.36 2.33916,4.49037 3.13916,6.88037 0.77,3.86 0.92035,7.75025 -1.13965,11.26025 0.19,-2.55 1.42076,-5.40085 0.78076,-7.88086 -0.72,-5.24 -5.19021,-10.44 -10.22022,-12 2.78001,4.57 7.27959,6.47092 7.8296,12.44092 1.27,7.96 -9.96934,12.0892 -15.319335,7.1792 -3.310005,-3.06 -3.350745,-8.4201 -1.760745,-12.3501 1.160002,-3.35 4.25041,-4.96878 5.67041,-8.25879 -1.6,0.74001 -3.180763,1.31998 -4.530763,2.47998 -3.020002,2.53 -3.63984,6.05887 -6.33984,8.83887 -0.140002,-1.42 -0.269902,-2.83977 -0.399907,-4.25976 -2.25,1.73 -3.71937,2.32048 -6.609375,2.50048 3.290003,-3.81 7.110195,-7.77027 5.9502,-13.28027 z m 2.370112,15.77051 c -0.06,1.31 -0.120427,2.60966 -0.190425,3.90967 -1.850002,-0.67001 -3.660435,-1.42001 -5.440432,-2.25 1.86,-0.59 3.740857,-1.12967 5.630857,-1.65967 z"
     id="path200"
     inkscape:connector-curvature="0" />
  <path
     d="m 324.40914,316.244 c -0.07,5.13 -3.08,9.34 -5.15,13.94 1.73,-0.61 3.62,-1.08 5.22,-2 2.18,-3.48 3,-7.87 4.69,-11.62 0.78,0.63 1.57,1.24 2.37,1.83 -1.03,7.29 -4.45,13.33 -8.49,19.33 -2.48,3.71 -5.66,6.98 -9.19,9.69 0.28,-2.96 1.9,-4.6 3.69,-6.77 -1.99,0.49 -4.01,0.92 -5.95,1.59 -3.3,3.34 -5.36,7.16 -9.94,9.13 1.45,-3.76 5.09,-5.98 7.14,-9.51 -1.66,0.1 -3.53,-0.13 -5.11,0.42 -3.4,2.8 -5.87,6.17 -10.06,7.95 1.64,-3.54 4.46,-5.53 7.06,-8.38 -4.38,-1.24 -8.4,-1.43 -11.32,-5.4 4.86,0.73 9.5,1.78 14.47,1.6 0.57,-0.72 1.15,-1.44 1.73,-2.15 -4.78,0.09 -9.34,0.32 -13.92,-1.34 -1.42,-0.43 -2.24,-1.36 -3.18,-2.44 6.7,0.98 13.4,1.29 20.09,0.02 1.37,-2.73 2.7,-5.38 4.79,-7.63 0.58,0.83 1.16,1.66 1.76,2.48 -0.86,1.68 -1.72,3.36 -2.56,5.05 1.11,-0.5 2.24,-0.97 3.31,-1.54 2.67,-3.77 4.05,-8.65 6.21,-12.7 0.75,-0.56 1.53,-1.08 2.34,-1.55 z"
     id="path202"
     inkscape:connector-curvature="0"
     style="fill:#040405" />
  <path
     d="m 82.449137,328.174 c 0.89,-0.03 1.45,0.32 1.68,1.03 -0.04,1.12 -3.52,1.2 -3.56,0.09 0.41,-0.57 1.03,-0.94 1.88,-1.12 z"
     id="path204"
     inkscape:connector-curvature="0"
     style="fill:#ececec" />
  <path
     d="m 322.38914,332.724 c -1.12,1.98 -2.25,3.96 -3.35,5.95 -1.52,-0.49 -3.04,-0.94 -4.55,-1.43 2.16,-3.11 4.46,-3.59 7.9,-4.52 z"
     id="path210"
     inkscape:connector-curvature="0"
     style="fill:#f0f0f0" />
  <path
     d="m 84.359137,334.014 c 2.89,-0.21 5.75,-0.14 8.64,-0.14 0.46,1.07 0.92,2.15 1.38,3.22 -3.4,-0.94 -6.78,-1.63 -10.02,-3.08 z"
     id="path212"
     inkscape:connector-curvature="0"
     style="fill:#f4f4f5" />
  <path
     d="m 26.589137,334.794 c 2.19,-0.05 4.38,-0.05 6.56,0.16 14.06,2.07 28.06,4.45 41.78,8.23 16.6,4.6 32.940003,10.32 48.660003,17.36 17.52,7.93 33.6,18.5 48.91,30.11 13.84,9.6 26.98,19.53 42.25,26.9 2.33,-3.35 4.74,-6.6 7.71,-9.42 16.42,-16.77 36.82,-28.45 57.12,-39.86 5.07,-2.58 10.08,-5.57 15.46,-7.45 -0.91,0.75 -1.86,1.44 -2.84,2.07 -12.13,7.52 -24.53,14.73 -36.56,22.42 -8.87,5.78 -16.63,12.46 -24.6,19.38 -5.24,5.08 -10.57,9.93 -14.83,15.91 -3.54,-2.22 -7.28,-3.76 -10.97,-5.73 -14.66,-8.16 -27.96,-17.71 -41.65,-27.33 -15.73,-11.03 -32.33,-20.66 -50.2,-27.8 -19.420003,-7.82 -39.410003,-13.99 -59.980003,-17.96 -8.05,-1.74 -16.21,-2.98 -24.25,-4.77 -1.2,-0.11 -2.05,-0.85 -2.57,-2.22 z"
     id="path214"
     inkscape:connector-curvature="0"
     style="fill:#030304" />
  <path
     d="m 313.39914,334.464 c -0.45,1.19 -0.9,2.37 -1.35,3.56 -1.5,0.01 -2.99,-0.01 -4.49,-0.04 1.87,-2.06 3.11,-2.87 5.84,-3.52 z"
     id="path216"
     inkscape:connector-curvature="0"
     style="fill:#f5f5f6" />
  <path
     d="m 297.47914,359.154 c 0.53,0.53 0.53,0.53 0,0 z"
     id="path220"
     inkscape:connector-curvature="0"
     style="fill:#818181" />
</svg>
