<?xml version="1.0" encoding="UTF-8" standalone="no"?>
<svg
   xmlns:dc="http://purl.org/dc/elements/1.1/"
   xmlns:cc="http://creativecommons.org/ns#"
   xmlns:rdf="http://www.w3.org/1999/02/22-rdf-syntax-ns#"
   xmlns:svg="http://www.w3.org/2000/svg"
   xmlns="http://www.w3.org/2000/svg"
   xmlns:sodipodi="http://sodipodi.sourceforge.net/DTD/sodipodi-0.dtd"
   xmlns:inkscape="http://www.inkscape.org/namespaces/inkscape"
   version="1.1"
   viewBox="0 0 546.38879 363.74942"
   width="546.38879pt"
   height="363.74942pt"
   id="svg5155"
   sodipodi:docname="title.svg"
   inkscape:version="0.92.2 2405546, 2018-03-11">
  <metadata
     id="metadata5161">
    <rdf:RDF>
      <cc:Work
         rdf:about="">
        <dc:format>image/svg+xml</dc:format>
        <dc:type
           rdf:resource="http://purl.org/dc/dcmitype/StillImage" />
        <dc:title></dc:title>
      </cc:Work>
    </rdf:RDF>
  </metadata>
  <defs
     id="defs5159" />
  <sodipodi:namedview
     pagecolor="#ffffff"
     bordercolor="#666666"
     borderopacity="1"
     objecttolerance="10"
     gridtolerance="10"
     guidetolerance="10"
     inkscape:pageopacity="0"
     inkscape:pageshadow="2"
     inkscape:window-width="3840"
     inkscape:window-height="2075"
     id="namedview5157"
     showgrid="false"
     inkscape:pagecheckerboard="true"
     fit-margin-top="0"
     fit-margin-left="0"
     fit-margin-right="0"
     fit-margin-bottom="0"
     inkscape:zoom="1.3054279"
     inkscape:cx="382.79392"
     inkscape:cy="285.58666"
     inkscape:window-x="7680"
     inkscape:window-y="2196"
     inkscape:window-maximized="0"
     inkscape:current-layer="svg5155" />
  <path
     d="m 344.45881,9.1395171 c 4.16,15.7999999 5.37,30.8099999 7.99,46.7499999 3.07,22.7 6.81,43.43 10.62,65.990003 3.91,-6.42 4.32,-13.53 11.37,-18.27 5.99,-5.710003 16.17,-3.53 21.13,2.34 7.04,11.31 12.26,23.76 17.73,35.9 3.58,-25.49 1,-52.210003 6.2,-78.040003 -0.17,-12.11 4.03,-22.81 5.38,-34.91 1.99,-9.65 0.6,-17.15 6.98,-25.8699999 4.21,-4.71 12.15,-2.03000001 13.59,3.98 3.48,22.2499999 -1.96,47.5199999 -4.73,69.8199999 -1.06,20.87 -0.97,42.230003 -3.23,62.990003 -2.05,10.33 -4.87,23.36 -13.61,30.2 -8.12,4.59 -15.9,2.16 -21.23,-5.15 -7.56,-10.76 -11.42,-24.14 -18.05,-35.09 -3.67,-0.13 -2.68,8.68 -2.98,11.09 -2.15,12.35 0.62,22.24 -2.92,34.01 -3.59,7 -12.77,7.3 -17.41,1.35 -7.92,-10.4 -10.85,-24.94 -13.3,-37.54 -4.64,-43.300003 -14.68,-87.710003 -18.37,-131.8600029 0.11,-3.22 1.21,-5.82 4.66,-6.45000001 5.22,-2.07999999 8.67,4.89000001 10.18,8.76000001 z"
     id="path3023"
     inkscape:connector-curvature="0"
     style="fill:#fffffe" />
  <path
     d="m 78.748813,32.829517 c 2.57,15.18 4.06,29.68 4.95,45.03 2.39,27.560003 6.23,53.700003 6.01,80.990003 -0.29,5.25 1.32,9.95 -3.25,13.78 -3.4,3.51 -8.55,2.28 -11.54,-1.01 -4.98,-6.04 -5.08,-15.28 -6.97,-22.93 -0.32,-16.03 -2.44,-31.74 -3.51,-47.72 -11.04,1.13 -22.4,3.37 -33.4,5.22 -1.34,4.77 -0.75,8.69 0.26,13.4 0.86,13.62 1.16,27.64 0.32,41.28 -0.94,7.04 -0.05,12.89 -5.69,18.22 -3.7,2.15 -9.84,0.37 -11.75,-3.64 -4.4900003,-12.37 -3.56,-23.26 -4.5200003,-36.6 -0.61,-35.71 -1.37,-71.200003 2.2500003,-106.860003 2.7,-5.61 8.46,-7.22 13.03,-2.39 5.38,11.48 2.7,20.54 4.71,32.23 -0.42,9.44 1.36,18.47 1.22,27.91 10.77,-1.19 20.63,-3.54 32.15,-4.56 1.85,-9.72 -0.77,-21.39 0.27,-31.69 0.35,-8.03 -1.05,-20.1 4.63,-26.39 3.98,-3.74 10.43,0.95 10.83,5.73 z"
     id="path3027"
     inkscape:connector-curvature="0"
     style="fill:#fffffe" />
  <path
     style="fill:#fffffe;stroke-width:1"
     d="m 477.64511,83.880767 c -2.417,-0.0645 -4.9315,0.39568 -7.5865,1.41943 -12.54,4.53 -24.2202,16.038633 -26.3202,29.598633 -3.78,17.60001 2.2703,34.48083 15.3003,46.59083 3.9099,2.65999 8.6194,3.77959 12.6694,6.32959 12.97,3.09 27.0607,0.39027 36.7207,-9.21973 4.92,-4.94 12.9902,-9.23049 14.2603,-16.75049 -0.6401,-7.26 -8.3205,-7.46901 -13.2306,-4.22901 -8.2899,5.54001 -15.2297,11.20893 -25.7797,11.14893 -10.43,1.37 -19.7198,-7.50959 -22.7798,-16.82959 2.75,-1.9 8.3795,1.08082 11.7495,0.84082 9.6,-2.39 18.3407,-8.28105 22.4106,-17.58105 4.89,-8.79 2.5001,-21.129573 -5.9399,-26.809573 -3.6875,-2.8375 -7.4458,-4.40127 -11.4741,-4.50879 z m -2.3628,15.30029 c 3.0614,-0.0131 7.187,1.213093 7.607,4.538093 1.3599,9.88 -14.5106,18.61033 -22.0005,11.84033 -0.39,-6.97 6.2901,-14.80931 13.1601,-16.299323 0.38,-0.05 0.7961,-0.0772 1.2334,-0.0791 z"
     id="path3069"
     inkscape:connector-curvature="0" />
  <path
     style="fill:#fffffe;stroke-width:1"
     d="m 123.90441,86.854397 c -3.6549,0.004 -7.1483,1.51272 -10.7652,4.45459 -9.59,9.540003 -18.029777,22.650273 -18.569777,36.530283 -1.64,13.09999 2.6196,25.73029 13.079577,34.05029 9.43,7.34 20.1795,6.76015 31.2495,4.16015 10.89,-5.07 19.6499,-13.2108 22.8999,-25.0708 3.46,-13.64 2.9098,-30.71978 -6.0102,-42.279783 -6.01,-8.08 -12.8192,-11.40936 -22.9292,-9.08936 -3.1719,-1.85062 -6.112,-2.75851 -8.9546,-2.75537 z m -1.0811,9.92285 c 2.1338,0.17583 2.4647,3.12908 4.1953,4.762213 7.65,3.02 15.34,1.38022 18.98,10.97022 3.25,10.45999 3.5104,22.55025 -4.8896,30.76025 -4.79,4.9 -13.5704,6.55019 -20.0904,5.20019 -9.43,-2.85999 -12.7197,-14.93085 -12.2797,-23.63085 0.98,-9.75 4.7197,-21.04995 12.2797,-27.689943 0.7238,-0.30563 1.3123,-0.41265 1.8047,-0.37208 z"
     id="path3081"
     inkscape:connector-curvature="0" />
  <path
     d="m 184.87881,94.709517 c 1.79,11.900003 2.55,23.100003 8.37,34.070003 1.48,-8.89 6.54,-18.28 17.11,-15.59 10.6,4.36 11.73,23.23 19.13,29.6 0.24,-12.24 0.57,-24.69 2.41,-36.81 0.37,-4.6 1.26,-9.780003 5.1,-12.810003 4.21,-2.9 11.17,-1.22 12.08,4.28 2.53,9.920003 1.31,20.880003 1.63,31.400003 -0.94,10.59 -1.11,20.15 -4.73,30.32 -3.75,6.82 -9.02,11.84 -17.34,8.76 -9.68,-3.92 -13.38,-19.06 -18.73,-26.13 -0.72,6.52 0.36,13.23 -0.6,19.7 -1.39,7.68 -5.81,14.72 -14.63,12.42 -7.87,-4.4 -8.68,-13.74 -10.43,-21.7 -4.1,-17.01 -11.5,-36.57 -9.21,-54.040003 0.81,-5.42 6.62,-8.98 9.84,-3.47 z"
     id="path3105"
     inkscape:connector-curvature="0"
     style="fill:#fffffe" />
  <path
     d="m 396.03881,198.22952 c 16.57,-2.1 28.53,17.13 20.65,31.62 -2.75,3.51 -7.8,2.16 -9.07,-1.96 -1.32,-3.9 -1.28,-12.6 -7.04,-12.98 l -0.95,-0.07 c -3.55,-0.13 -7.34,0.66 -10.39,2.52 -26.62,17.61 -45.42,51.32 -43.96,83.29 l 0.23,0.8 c -0.66,11.78 1.92,26.25 10.72,34.85 6.68,5.23 19.13,4.32 23.42,-3.54 10.51,-14.15 15.38,-29.9 21.99,-45.77 -6.92,1.74 -13.52,3.88 -20.98,3.92 -4.27,0.15 -8.34,-3.6 -7.95,-7.95 1.27,-3.73 5.56,-6.58 9.07,-8.01 14.81,-5.56 30,-8.99 45.9,-8.11 6.29,0.33 13.97,-2.02 15.67,6.33 -0.17,6.12 -7.51,8.37 -12.66,8.59 -7.29,-0.03 -13.84,2.74 -20.98,3.38 6.21,1.52 9.47,6.53 9.82,12.74 0.02,9.06 1.96,17.8 2.44,26.82 1.79,9.41 4.66,19 3.55,29.04 -2.55,5.05 -7.47,9.59 -13.22,5.51 -7.46,-4.77 -6.62,-19.43 -10.07,-25.24 -5.53,12.06 -16.39,25.52 -30.5,26.98 -9.23,1.61 -20.02,-0.96 -27.45,-6.73 -10.7,-7.05 -14.22,-17.46 -18.04,-29.01 -2.22,-9.9 -1.05,-19.54 -2.56,-29.4 1.9,-15.74 4.42,-30.65 12.24,-44.7 5.61,-13.74 15.2,-23.38 25.11,-33.94 10.25,-9.33 20.75,-17.46 35.01,-18.98 z"
     id="path3857"
     inkscape:connector-curvature="0"
     style="fill:#fffffe" />
  <path
     style="fill:#fffffe;stroke-width:1"
     d="m 27.101663,219.19278 c -1.79748,-0.0597 -3.56938,0.73647 -4.45312,2.62647 -3.37,7.65999 -3.16018,17.27039 -4.68018,25.40039 l -0.30909,1.66992 c -0.27,10.35 -0.85044,21.20932 -2.96044,31.29931 l -0.18018,0.60059 c 0.15001,2.72 -0.12939,4.66971 -1.12939,7.19971 l -0.0601,0.7207 c -0.52,10.57 -5.1110503,21.72977 -7.8310603,32.00977 -3.42999,10.26998 -9.38913,22.37048 -1.86914,32.21048 8.5000103,9.12 25.5602903,9.499 37.0503003,7.809 21.89999,-3.86 47.61965,-4.2997 67.889647,-13.0297 3.65,-1.16 3.4592,-4.8898 5.9092,-6.7398 5.17,10.19 12.0407,18.2701 23.2807,21.8101 l 0.7793,0.2592 c 4.19,-0.62 8.0009,0.5505 12.0908,0.7105 14.2301,-2.3 27.2591,-9.6496 38.3291,-18.6196 5.2601,-4.86 9.5003,-8.8608 4.5103,-16.0708 -5.66,-4.12003 -13.0895,1.6699 -18.2695,4.2099 -11.92,4.71 -23.5803,12.0613 -36.5303,6.5713 -4.2,-2.89 -10.3095,-9.0807 -8.7495,-14.68064 10.04,-2.01 19.0492,-5.10061 25.9292,-13.12061 3.56,-5.68 6.8501,-12.19955 3.4101,-18.78955 -3.42,-6.91 -15.619,-10.68965 -22.289,-7.13965 -15.66,8.74001 -26.1902,28.56 -24.4102,46.49995 -11.63,-5.65994 -21.720337,-0.9597 -33.880337,-1.7797 -4.09,-0.33 -8.11992,0.7289 -12.16992,0.4189 l -0.67969,-0.029 c -15.28,0.63 -30.57064,6.5997 -45.66064,6.4497 -1.41,-12.34999 4.6208,-25.66045 6.32079,-37.98046 3,-12.21999 2.87938,-25.52958 5.10938,-37.82958 0.16,-12.93 2.32949,-25.33946 0.72949,-38.68946 -0.5625,-2.4075 -2.91552,-3.90028 -5.22656,-3.97705 z m 116.733347,78.58447 c 1.5638,0.05 3.1042,0.52568 4.5542,1.23194 -0.94,7.71999 -12.1301,12.28099 -18.6401,13.77099 1.45,-5.82 5.5803,-12.1713 11.2603,-14.59131 0.9412,-0.31875 1.8874,-0.44162 2.8256,-0.41162 z"
     id="path4095"
     inkscape:connector-curvature="0" />
  <path
     d="m 204.89881,221.61952 c 3.49,5.21 3.28,13.17 3.85,19.25 1.89,13.58 0.37,28.47 4.19,41.71 9.51,0.66 19.2,0.1 28.75,0.23 2.96,0 6.45,0 8.05,2.99 2.21,3.24 0.1,7.43 -3.03,9.07 -10.93,4.36 -21.61,4.22 -32.78,6.27 0.51,7.63 0.97,15.24 1.65,22.86 l -0.18,0.76 c -1.2,6.41 0.88,18.18 -4.04,22.76 -3.86,2.68 -6.74,1.12 -8.56,-2.77 -5.27,-13.1 -2.05,-29.15 -5.54,-42.39 -4.3,-1.26 -7.33,-1.84 -8.27,-6.86 -2.11,-5.73 7.42,-7.64 6.71,-11.62 -0.43,-18.73 -1.86,-38.51 -1.39,-57.22 -0.02,-5.64 6.26,-8.99 10.59,-5.04 z"
     id="path4109"
     inkscape:connector-curvature="0"
     style="fill:#fffffe" />
  <path
     style="fill:#fffffe;stroke-width:1"
     d="m 510.77251,259.71183 c -7.1181,0.0477 -13.9532,2.02204 -20.5532,5.61767 -5.32,1.8 -10.6498,2.71994 -15.7998,5.18994 l -0.58,0.26953 c -11.3201,9.94 -21.8606,18.8808 -26.0406,34.0708 -0.68,9.38 -1.1601,19.97045 5.1299,27.71045 12.12,18.82 38.8605,23.0498 58.7505,16.2598 18.18,-8.74 33.0295,-27.51073 34.7095,-47.97073 -1.23,-6.48 0.2406,-12.13917 -2.5694,-18.13917 -5.13,-9.99 -12.1106,-18.41107 -23.1607,-21.85107 -3.3562,-0.80313 -6.6507,-1.17893 -9.8862,-1.15722 z m -4.5879,17.60742 c 0.4484,-0.0113 0.9003,-0.0119 1.3565,0 1.0426,0.0272 2.1065,0.11603 3.1978,0.27978 7.3599,0.23 15.1201,8.02061 14.8901,15.37061 l 0.2299,0.68994 c 3.06,12.43 -7.1805,24.78925 -17.0405,31.23925 -7.74,4.48999 -20.2097,6.02049 -28.4897,2.21049 l -0.7193,-0.25053 c -7.59,-2.13 -13.0902,-7.33941 -14.7802,-15.14941 -0.06,-10.32 4.6195,-18.9299 11.0596,-26.6499 2.5599,-3.61 7.2294,-1.41983 11.1694,-2.81982 6.5132,-2.08361 12.4019,-4.75169 19.1264,-4.92041 z"
     id="path4633"
     inkscape:connector-curvature="0" />
  <path
     d="m 348.94881,285.11952 c 0.48,0.49 0.48,0.49 0,0 z"
     id="path4919"
     inkscape:connector-curvature="0"
     style="fill:#212332" />
</svg>
