<?xml version="1.0" encoding="UTF-8" standalone="no"?>
<!-- Creator: CorelDRAW X6 -->

<svg
   xmlns:dc="http://purl.org/dc/elements/1.1/"
   xmlns:cc="http://creativecommons.org/ns#"
   xmlns:rdf="http://www.w3.org/1999/02/22-rdf-syntax-ns#"
   xmlns:svg="http://www.w3.org/2000/svg"
   xmlns="http://www.w3.org/2000/svg"
   xmlns:sodipodi="http://sodipodi.sourceforge.net/DTD/sodipodi-0.dtd"
   xmlns:inkscape="http://www.inkscape.org/namespaces/inkscape"
   xml:space="preserve"
   width="17.342762in"
   height="4.2184501in"
   version="1.1"
   style="clip-rule:evenodd;fill-rule:evenodd;image-rendering:optimizeQuality;shape-rendering:geometricPrecision;text-rendering:geometricPrecision"
   viewBox="0 0 17342.518 4218.3906"
   id="svg4689"
   sodipodi:docname="emerging_faith.svg"
   inkscape:version="0.92.4 (5da689c313, 2019-01-14)"><metadata
   id="metadata4693"><rdf:RDF><cc:Work
       rdf:about=""><dc:format>image/svg+xml</dc:format><dc:type
         rdf:resource="http://purl.org/dc/dcmitype/StillImage" /><dc:title></dc:title></cc:Work></rdf:RDF></metadata><sodipodi:namedview
   pagecolor="#ffffff"
   bordercolor="#666666"
   borderopacity="1"
   objecttolerance="10"
   gridtolerance="10"
   guidetolerance="10"
   inkscape:pageopacity="0"
   inkscape:pageshadow="2"
   inkscape:window-width="3207"
   inkscape:window-height="1699"
   id="namedview4691"
   showgrid="false"
   fit-margin-top="0"
   fit-margin-left="0"
   fit-margin-right="0"
   fit-margin-bottom="0"
   inkscape:zoom="0.69140731"
   inkscape:cx="552.49632"
   inkscape:cy="-253.1069"
   inkscape:window-x="0"
   inkscape:window-y="0"
   inkscape:window-maximized="0"
   inkscape:current-layer="svg4689" />
 <defs
   id="defs4681">
  <style
   type="text/css"
   id="style4679">
   <![CDATA[
    .fil0 {fill:#1977F3;fill-rule:nonzero}
    .fil1 {fill:#FEFEFE;fill-rule:nonzero}
   ]]>
  </style>
 </defs>
 <g
   id="Layer_x0020_1"
   transform="scale(0.2966102)">
  <metadata
   id="CorelCorpID_0Corel-Layer" />
  <path
   class="fil0"
   d="M 14222,7111 C 14222,3184 11038,0 7111,0 3184,0 0,3184 0,7111 c 0,3549 2600,6491 6000,7025 V 9167 H 4194 V 7111 H 6000 V 5544 c 0,-1782 1062,-2767 2686,-2767 778,0 1592,139 1592,139 v 1750 h -897 c -883,0 -1159,548 -1159,1111 v 1334 h 1972 L 9879,9167 H 8222 v 4969 c 3400,-533 6000,-3475 6000,-7025 z"
   id="path4684"
   inkscape:connector-curvature="0"
   style="fill:#1977f3;fill-rule:nonzero" />
  <path
   class="fil1"
   d="m 9879,9167 315,-2056 H 8222 V 5777 c 0,-562 275,-1111 1159,-1111 h 897 V 2916 c 0,0 -814,-139 -1592,-139 -1624,0 -2686,984 -2686,2767 V 7111 H 4194 v 2056 h 1806 v 4969 c 362,57 733,86 1111,86 378,0 749,-30 1111,-86 V 9167 Z"
   id="path4686"
   inkscape:connector-curvature="0"
   style="fill:#fefefe;fill-rule:nonzero" />
 </g>
<path
   inkscape:connector-curvature="0"
   id="path5250"
   style="font-style:normal;font-variant:normal;font-weight:normal;font-stretch:normal;font-size:1999.97167969px;line-height:1.25;font-family:Lato;-inkscape-font-specification:Lato;letter-spacing:0px;word-spacing:0px;fill:#000000;fill-opacity:1;stroke:none;stroke-width:10.41651917"
   d="m 4815.1044,1042.9346 v 400.9944 h 505.9928 v 206.997 h -505.9928 v 408.9942 h 641.9909 v 214.997 H 4545.1082 V 828.93768 h 911.9871 v 213.99692 z" /><path
   inkscape:connector-curvature="0"
   id="path5252"
   style="font-style:normal;font-variant:normal;font-weight:normal;font-stretch:normal;font-size:1999.97167969px;line-height:1.25;font-family:Lato;-inkscape-font-specification:Lato;letter-spacing:0px;word-spacing:0px;fill:#000000;fill-opacity:1;stroke:none;stroke-width:10.41651917"
   d="M 5631.0929,2274.9172 V 1248.9317 h 150.9978 q 47.9994,0 62.9992,44.9994 l 15.9997,75.9989 q 26.9996,-29.9996 55.9992,-54.9992 29.9996,-24.9997 62.9991,-42.9994 33.9996,-17.9998 71.999,-27.9996 38.9995,-10.9999 84.9988,-10.9999 96.9986,0 158.9978,52.9993 62.9991,51.9993 93.9986,138.998 23.9997,-50.9993 59.9992,-86.9987 35.9995,-36.9995 78.9989,-59.9992 42.9994,-22.9997 90.9987,-33.9995 48.9993,-10.9999 97.9986,-10.9999 84.9988,0 150.9979,25.9997 65.999,25.9996 110.9984,75.9989 44.9993,49.9993 67.999,121.9983 23.9997,71.999 23.9997,164.9976 v 652.9908 H 6825.076 v -652.9908 q 0,-97.9986 -42.9994,-146.9979 -42.9994,-49.9993 -125.9982,-49.9993 -37.9995,0 -70.999,12.9998 -31.9996,12.9999 -56.9992,37.9995 -23.9997,23.9997 -37.9995,60.9991 -13.9998,36.9995 -13.9998,84.9988 v 652.9908 h -247.9965 v -652.9908 q 0,-102.9985 -41.9994,-149.9978 -40.9994,-46.9994 -120.9983,-46.9994 -53.9992,0 -100.9985,26.9996 -45.9994,25.9997 -85.9988,71.999 v 750.9894 z" /><path
   inkscape:connector-curvature="0"
   id="path5254"
   style="font-style:normal;font-variant:normal;font-weight:normal;font-stretch:normal;font-size:1999.97167969px;line-height:1.25;font-family:Lato;-inkscape-font-specification:Lato;letter-spacing:0px;word-spacing:0px;fill:#000000;fill-opacity:1;stroke:none;stroke-width:10.41651917"
   d="m 7967.8411,1643.9261 q 0,-47.9993 -13.9998,-89.9987 -12.9998,-42.9994 -39.9994,-74.9989 -26.9997,-31.9996 -68.9991,-49.9993 -40.9994,-18.9998 -95.9986,-18.9998 -106.9985,0 -168.9976,60.9992 -60.9991,60.9991 -77.9989,172.9975 z m -470.9933,148.9979 q 5.9999,78.9989 27.9996,136.9981 21.9997,56.9992 57.9991,94.9986 35.9995,36.9995 84.9988,55.9992 49.9993,17.9998 109.9985,17.9998 59.9991,0 102.9985,-13.9998 43.9994,-13.9998 75.999,-30.9996 32.9995,-16.9997 56.9991,-30.9995 24.9997,-13.9998 47.9994,-13.9998 30.9995,0 45.9993,22.9996 l 70.999,89.9988 q -40.9994,47.9993 -91.9987,80.9988 -50.9993,31.9996 -106.9985,51.9993 -54.9992,18.9997 -112.9984,26.9996 -56.9992,7.9999 -110.9984,7.9999 -106.9985,0 -198.9972,-34.9995 -91.9987,-35.9995 -159.9977,-104.9985 -67.9991,-69.999 -106.9985,-171.9976 -38.9995,-102.9985 -38.9995,-237.9966 0,-104.9985 33.9996,-196.9972 33.9995,-92.9987 96.9986,-160.9978 63.9991,-68.999 154.9978,-108.9984 91.9987,-39.9995 206.9971,-39.9995 96.9986,0 178.9974,30.9996 81.9989,30.9996 140.998,90.9987 58.9992,58.9992 91.9987,145.998 33.9996,85.9987 33.9996,196.9972 0,55.9992 -11.9999,75.9989 -11.9998,18.9997 -45.9993,18.9997 z" /><path
   inkscape:connector-curvature="0"
   id="path5256"
   style="font-style:normal;font-variant:normal;font-weight:normal;font-stretch:normal;font-size:1999.97167969px;line-height:1.25;font-family:Lato;-inkscape-font-specification:Lato;letter-spacing:0px;word-spacing:0px;fill:#000000;fill-opacity:1;stroke:none;stroke-width:10.41651917"
   d="m 8606.2383,1426.9292 q 47.9997,-91.9987 113.9987,-143.998 65.999,-52.9992 155.997,-52.9992 70.999,0 113.999,30.9995 l -16,184.9974 q -5,17.9998 -15,25.9997 -9,6.9999 -24.999,6.9999 -15,0 -45,-5 -28.999,-4.9999 -56.999,-4.9999 -40.999,0 -72.999,11.9998 -31.999,11.9999 -57.999,34.9995 -25,21.9997 -44.999,53.9993 -19.0002,31.9995 -35.9999,72.9989 v 631.9911 H 8373.2416 V 1248.9317 h 144.9979 q 37.9995,0 52.9993,13.9998 14.9998,12.9998 19.9997,47.9993 z" /><path
   inkscape:connector-curvature="0"
   id="path5258"
   style="font-style:normal;font-variant:normal;font-weight:normal;font-stretch:normal;font-size:1999.97167969px;line-height:1.25;font-family:Lato;-inkscape-font-specification:Lato;letter-spacing:0px;word-spacing:0px;fill:#000000;fill-opacity:1;stroke:none;stroke-width:10.41651917"
   d="m 9482.601,1736.9248 q 45.999,0 79.999,-11.9998 33.999,-12.9998 55.999,-34.9995 23,-21.9997 34,-52.9993 11.999,-30.9995 11.999,-67.999 0,-75.9989 -45.999,-119.9983 -44.999,-44.9994 -135.998,-44.9994 -90.999,0 -136.998,44.9994 -44.999,43.9994 -44.999,119.9983 0,35.9995 10.999,66.999 12,30.9996 34,53.9993 23,21.9997 56.999,34.9995 35,11.9998 79.999,11.9998 z m 278.996,583.9917 q 0,-29.9995 -18,-48.9993 -17.999,-18.9997 -48.999,-28.9996 -31,-10.9998 -72.999,-15.9997 -40.999,-5 -87.999,-6.9999 -45.999,-3 -95.998,-5 -49,-1.9999 -95.999,-7.9998 -40.999,22.9996 -66.999,53.9992 -25,30.9996 -25,71.999 0,26.9996 13,49.9993 14,23.9996 43,40.9994 29.999,16.9997 76.998,25.9996 47,9.9999 114.999,9.9999 68.999,0 118.998,-10.9999 49.999,-9.9998 81.999,-28.9996 32.999,-17.9997 47.999,-43.9993 15,-24.9997 15,-54.9993 z m 245.997,-1036.9853 v 91.9987 q 0,43.9994 -53,53.9993 l -91.998,16.9997 q 20.999,52.9993 20.999,115.9984 0,75.9989 -30.999,137.998 -30,60.9992 -83.999,103.9985 -53.999,42.9994 -127.998,66.9991 -72.999,22.9997 -157.998,22.9997 -30,0 -57.999,-3 -28,-2.9999 -54.999,-7.9999 -48,28.9996 -48,64.9991 0,30.9996 28,45.9994 28.999,13.9998 75.999,19.9997 46.999,5.9999 106.998,7.9999 59.999,0.9999 122.999,5.9999 62.999,4.9999 122.998,17.9997 59.999,11.9999 106.998,38.9995 47,26.9996 74.999,73.9989 29,45.9994 29,118.9983 0,67.9991 -34,131.9982 -32.999,63.9991 -96.998,113.9984 -62.999,49.9992 -155.998,79.9988 -91.999,30.9996 -209.997,30.9996 -115.998,0 -201.997,-22.9997 -85.999,-21.9997 -142.998,-59.9991 -56.999,-36.9995 -84.999,-85.9988 -28,-48.9993 -28,-101.9986 0,-71.999 43,-119.9983 43.999,-48.9993 119.998,-77.9989 -40.999,-20.9997 -64.999,-55.9992 -24,-34.9995 -24,-91.9987 0,-22.9997 8,-46.9993 9,-24.9997 25,-48.9993 17,-23.9997 41.999,-44.9994 25,-21.9997 58.999,-38.9994 -77.998,-41.9994 -122.998,-111.9984 -43.999,-69.9991 -43.999,-163.9977 0,-75.999 29.999,-136.9981 31,-61.9991 84.999,-104.9985 54.999,-43.9994 128.998,-66.9991 74.999,-22.9996 162.998,-22.9996 65.999,0 123.998,13.9998 57.999,12.9998 105.999,38.9994 z" /><path
   inkscape:connector-curvature="0"
   id="path5260"
   style="font-style:normal;font-variant:normal;font-weight:normal;font-stretch:normal;font-size:1999.97167969px;line-height:1.25;font-family:Lato;-inkscape-font-specification:Lato;letter-spacing:0px;word-spacing:0px;fill:#000000;fill-opacity:1;stroke:none;stroke-width:10.41651917"
   d="m 10418.275,1248.9317 v 1025.9855 h -247.996 V 1248.9317 Z m 34,-298.99572 q 0,31.9995 -13,59.99912 -13,27.9996 -35,48.9993 -20.999,20.9997 -49.999,33.9995 -29,11.9999 -61.999,11.9999 -32,0 -60.999,-11.9999 -28,-12.9998 -49,-33.9995 -20.999,-20.9997 -33.999,-48.9993 -12,-27.99962 -12,-59.99912 0,-32.9996 12,-61.9992 13,-28.9996 33.999,-49.9993 21,-20.9997 49,-32.9995 28.999,-12.9998 60.999,-12.9998 32.999,0 61.999,12.9998 29,11.9998 49.999,32.9995 22,20.9997 35,49.9993 13,28.9996 13,61.9992 z" /><path
   inkscape:connector-curvature="0"
   id="path5262"
   style="font-style:normal;font-variant:normal;font-weight:normal;font-stretch:normal;font-size:1999.97167969px;line-height:1.25;font-family:Lato;-inkscape-font-specification:Lato;letter-spacing:0px;word-spacing:0px;fill:#000000;fill-opacity:1;stroke:none;stroke-width:10.41651917"
   d="m 10901.081,1374.9299 q 31,-30.9995 64.999,-56.9992 35,-26.9996 72.999,-44.9993 39,-18.9998 82.999,-28.9996 43.999,-10.9999 95.999,-10.9999 83.998,0 148.997,28.9996 65,27.9996 107.999,79.9989 43.999,50.9993 65.999,122.9983 23,70.999 23,156.9977 v 652.9908 h -246.997 v -652.9908 q 0,-93.9986 -42.999,-144.9979 -43,-51.9993 -130.998,-51.9993 -63.999,0 -119.999,28.9996 -55.999,28.9996 -105.998,78.9989 v 741.9895 h -246.997 V 1248.9317 h 150.998 q 48,0 62.999,44.9994 z" /><path
   inkscape:connector-curvature="0"
   id="path5264"
   style="font-style:normal;font-variant:normal;font-weight:normal;font-stretch:normal;font-size:1999.97167969px;line-height:1.25;font-family:Lato;-inkscape-font-specification:Lato;letter-spacing:0px;word-spacing:0px;fill:#000000;fill-opacity:1;stroke:none;stroke-width:10.41651917"
   d="m 12173.969,1736.9248 q 46,0 79.999,-11.9998 34,-12.9998 55.999,-34.9995 23,-21.9997 34,-52.9993 12,-30.9995 12,-67.999 0,-75.9989 -46,-119.9983 -44.999,-44.9994 -135.998,-44.9994 -90.999,0 -136.998,44.9994 -44.999,43.9994 -44.999,119.9983 0,35.9995 11,66.999 11.999,30.9996 33.999,53.9993 23,21.9997 56.999,34.9995 35,11.9998 79.999,11.9998 z m 278.996,583.9917 q 0,-29.9995 -18,-48.9993 -17.999,-18.9997 -48.999,-28.9996 -30.999,-10.9998 -72.999,-15.9997 -40.999,-5 -87.999,-6.9999 -45.999,-3 -95.998,-5 -48.999,-1.9999 -95.999,-7.9998 -40.999,22.9996 -66.999,53.9992 -25,30.9996 -25,71.999 0,26.9996 13,49.9993 14,23.9996 43,40.9994 29.999,16.9997 76.999,25.9996 46.999,9.9999 114.998,9.9999 68.999,0 118.998,-10.9999 50,-9.9998 81.999,-28.9996 33,-17.9997 47.999,-43.9993 15,-24.9997 15,-54.9993 z m 245.997,-1036.9853 v 91.9987 q 0,43.9994 -53,53.9993 l -91.998,16.9997 q 20.999,52.9993 20.999,115.9984 0,75.9989 -30.999,137.998 -30,60.9992 -83.999,103.9985 -53.999,42.9994 -127.998,66.9991 -72.999,22.9997 -157.998,22.9997 -29.999,0 -57.999,-3 -28,-2.9999 -54.999,-7.9999 -48,28.9996 -48,64.9991 0,30.9996 28,45.9994 29,13.9998 75.999,19.9997 46.999,5.9999 106.998,7.9999 60,0.9999 122.999,5.9999 62.999,4.9999 122.998,17.9997 59.999,11.9999 106.998,38.9995 47,26.9996 74.999,73.9989 29,45.9994 29,118.9983 0,67.9991 -34,131.9982 -32.999,63.9991 -96.998,113.9984 -62.999,49.9992 -155.998,79.9988 -91.999,30.9996 -209.997,30.9996 -115.998,0 -201.997,-22.9997 -85.999,-21.9997 -142.998,-59.9991 -56.999,-36.9995 -84.999,-85.9988 -27.999,-48.9993 -27.999,-101.9986 0,-71.999 42.999,-119.9983 43.999,-48.9993 119.998,-77.9989 -40.999,-20.9997 -64.999,-55.9992 -24,-34.9995 -24,-91.9987 0,-22.9997 8,-46.9993 9,-24.9997 25,-48.9993 17,-23.9997 41.999,-44.9994 25,-21.9997 59,-38.9994 -77.999,-41.9994 -122.999,-111.9984 -43.999,-69.9991 -43.999,-163.9977 0,-75.999 30,-136.9981 30.999,-61.9991 84.998,-104.9985 55,-43.9994 128.998,-66.9991 74.999,-22.9996 162.998,-22.9996 65.999,0 123.998,13.9998 58,12.9998 105.999,38.9994 z" /><path
   inkscape:connector-curvature="0"
   id="path5266"
   style="font-style:normal;font-variant:normal;font-weight:900;font-stretch:normal;font-size:416.6607666px;line-height:1.25;font-family:Lato;-inkscape-font-specification:'Lato Heavy';letter-spacing:0px;word-spacing:0px;fill:#000000;fill-opacity:1;stroke:none;stroke-width:10.41651917"
   d="m 13398.014,2274.9172 v -823.9883 l -67.999,-13.9998 q -34.999,-7.9999 -56.999,-24.9997 -21,-16.9997 -21,-49.9993 v -121.9983 h 145.998 v -58.9991 q 0,-88.9988 28,-160.9977 28.999,-71.99902 81.999,-122.99832 53.999,-50.9993 130.998,-78.9989 76.999,-27.9996 174.997,-27.9996 38,0 69.999,4.9999 32,4 66.999,13.9999 l -6,150.9978 q -1,15.9998 -7.999,26.9996 -7,9.9999 -19,16.99982 -11,5.9999 -24,8.9999 -13,2.9999 -25.999,2.9999 -41,0 -72.999,7.9999 -32,7.9999 -54,28.9996 -20.999,19.9997 -31.999,53.9992 -11,32.9996 -11,83.9988 v 48.9993 h 242.996 v 211.997 h -232.996 v 822.9884 z" /><path
   inkscape:connector-curvature="0"
   id="path5268"
   style="font-style:normal;font-variant:normal;font-weight:900;font-stretch:normal;font-size:416.6607666px;line-height:1.25;font-family:Lato;-inkscape-font-specification:'Lato Heavy';letter-spacing:0px;word-spacing:0px;fill:#000000;fill-opacity:1;stroke:none;stroke-width:10.41651917"
   d="m 14586.467,1852.9232 q -92.999,3.9999 -152.998,15.9997 -59.999,11.9999 -94.999,29.9996 -34.999,17.9998 -48.999,40.9994 -13,22.9997 -13,49.9993 0,52.9993 29,74.999 28.999,20.9997 84.998,20.9997 60,0 104.999,-20.9997 44.999,-20.9997 90.999,-67.9991 z m -557.992,-470.9934 q 93.998,-82.9988 207.997,-122.9982 114.998,-40.9994 245.996,-40.9994 93.999,0 168.998,30.9995 75.999,29.9996 127.998,84.9988 52.999,53.9993 80.999,128.9982 27.999,74.9989 27.999,163.9977 v 647.9908 h -141.998 q -43.999,0 -66.999,-11.9998 -21.999,-11.9999 -36.999,-49.9993 l -22,-56.9992 q -38.999,32.9995 -74.999,57.9992 -35.999,24.9996 -74.999,42.9993 -37.999,16.9998 -81.999,24.9997 -42.999,8.9999 -95.998,8.9999 -70.999,0 -128.998,-17.9998 -58,-18.9997 -98.999,-54.9992 -39.999,-35.9995 -61.999,-88.9987 -22,-53.9993 -22,-123.9983 0,-55.9992 28,-112.9984 27.999,-57.9992 96.998,-104.9985 68.999,-47.9993 185.998,-79.9989 116.998,-31.9995 294.996,-35.9995 v -43.9993 q 0,-90.9987 -38,-130.9982 -36.999,-40.9994 -105.998,-40.9994 -55,0 -89.999,11.9998 -35,11.9999 -62.999,26.9997 -27,14.9997 -52.999,26.9996 -26,11.9998 -62,11.9998 -31.999,0 -53.999,-15.9998 -21.999,-15.9997 -35.999,-37.9994 z" /><path
   inkscape:connector-curvature="0"
   id="path5270"
   style="font-style:normal;font-variant:normal;font-weight:900;font-stretch:normal;font-size:416.6607666px;line-height:1.25;font-family:Lato;-inkscape-font-specification:'Lato Heavy';letter-spacing:0px;word-spacing:0px;fill:#000000;fill-opacity:1;stroke:none;stroke-width:10.41651917"
   d="m 15403.611,1237.9319 v 1036.9853 h -309.995 V 1237.9319 Z m 32,-283.99602 q 0,36.9995 -15,69.99902 -15,31.9996 -40.999,56.9992 -26,23.9997 -60.999,38.9994 -34,13.9998 -72.999,13.9998 -38,0 -70.999,-13.9998 -33,-14.9997 -59,-38.9994 -24.999,-24.9996 -39.999,-56.9992 -14,-32.99952 -14,-69.99902 0,-37.9995 14,-70.999 15,-32.9995 39.999,-57.9992 26,-24.9996 59,-38.9994 32.999,-13.9998 70.999,-13.9998 38.999,0 72.999,13.9998 34.999,13.9998 60.999,38.9994 25.999,24.9997 40.999,57.9992 15,32.9995 15,70.999 z" /><path
   inkscape:connector-curvature="0"
   id="path5272"
   style="font-style:normal;font-variant:normal;font-weight:900;font-stretch:normal;font-size:416.6607666px;line-height:1.25;font-family:Lato;-inkscape-font-specification:'Lato Heavy';letter-spacing:0px;word-spacing:0px;fill:#000000;fill-opacity:1;stroke:none;stroke-width:10.41651917"
   d="m 15992.759,2290.917 q -73.999,0 -130.998,-20.9997 -55.999,-21.9997 -94.999,-60.9992 -37.999,-39.9994 -57.999,-95.9986 -20,-55.9992 -20,-124.9982 v -535.9925 h -87.998 q -24,0 -41,-14.9997 -17,-15.9998 -17,-45.9994 v -120.9983 l 164.998,-31.9995 60.999,-252.99642 q 12,-47.9994 67.999,-47.9994 h 161.998 v 302.99572 h 256.996 v 211.997 h -256.996 v 514.9928 q 0,35.9994 17,59.9991 17.999,22.9997 50.999,22.9997 17,0 28,-3 11.999,-3.9999 19.999,-7.9999 9,-4.9999 16,-7.9999 8,-3.9999 18,-3.9999 14,0 21.999,6.9999 9,5.9999 18,19.9997 l 93.999,146.9979 q -59.999,44.9994 -134.998,67.9991 -74.999,21.9997 -154.998,21.9997 z" /><path
   inkscape:connector-curvature="0"
   id="path5274"
   style="font-style:normal;font-variant:normal;font-weight:900;font-stretch:normal;font-size:416.6607666px;line-height:1.25;font-family:Lato;-inkscape-font-specification:'Lato Heavy';letter-spacing:0px;word-spacing:0px;fill:#000000;fill-opacity:1;stroke:none;stroke-width:10.41651917"
   d="m 16701.28,1328.9306 q 56,-47.9993 120.999,-76.9989 65.999,-29.9996 156.997,-29.9996 84.999,0 149.998,29.9996 65.999,28.9996 110.999,81.9988 44.999,51.9993 67.999,124.9982 22.999,71.999 22.999,156.9978 v 658.9907 h -309.995 v -658.9907 q 0,-75.9989 -35,-117.9983 -34.999,-42.9994 -102.998,-42.9994 -50.999,0 -95.999,21.9997 -43.999,20.9997 -85.999,57.9992 v 739.9895 h -309.995 V 777.93838 h 309.995 z" /><g
   aria-label="Secret Facebook group"
   style="font-style:normal;font-weight:normal;font-size:1265.18371582px;line-height:1.25;font-family:sans-serif;letter-spacing:0px;word-spacing:0px;fill:#000000;fill-opacity:1;stroke:none;stroke-width:31.62959099"
   id="text5248"
   transform="translate(-1355.911,-256.11652)"><path
     d="m 6475.172,3286.9392 q -7.5911,13.2845 -16.4474,19.6104 -8.2237,5.6933 -20.8755,5.6933 -13.2844,0 -29.0992,-9.4889 -15.1822,-10.1214 -36.6903,-22.1407 -21.5082,-12.0192 -50.6074,-21.5081 -28.4666,-10.1215 -67.6873,-10.1215 -35.4252,0 -61.994,8.8563 -26.5689,8.2237 -44.9141,23.4059 -17.7125,15.1822 -26.5688,36.6903 -8.8563,20.8756 -8.8563,46.1792 0,32.2622 17.7126,53.7704 18.3451,21.5081 48.077,36.6903 29.7318,15.1822 67.6873,27.2014 37.9555,12.0193 77.8088,25.9363 39.8533,13.2844 77.8088,31.6296 37.9555,17.7126 67.6873,45.5466 29.7318,27.2015 47.4444,67.0547 18.3452,39.8533 18.3452,96.7866 0,61.994 -21.5082,116.3969 -20.8755,53.7703 -61.994,94.2562 -40.4858,39.8533 -99.3169,63.2592 -58.831,22.7733 -134.742,22.7733 -43.6489,0 -86.0325,-8.8563 -42.3837,-8.2237 -81.6044,-24.0385 -38.5881,-15.8148 -72.7481,-37.9555 -34.1599,-22.1407 -60.7288,-49.3422 l 49.9748,-81.6043 q 6.3259,-8.8563 16.4474,-14.5496 10.1214,-6.326 21.5081,-6.326 15.8148,0 34.16,13.2845 18.3451,12.6518 43.6488,28.4666 25.3037,15.8148 58.831,29.0992 34.16,12.6519 81.6044,12.6519 72.7481,0 112.6013,-34.16 39.8533,-34.7925 39.8533,-99.3169 0,-36.0577 -18.3451,-58.8311 -17.7126,-22.7733 -47.4444,-37.9555 -29.7318,-15.8148 -67.6874,-26.5688 -37.9555,-10.7541 -77.1762,-23.4059 -39.2207,-12.6519 -77.1762,-30.3644 -37.9555,-17.7126 -67.6873,-46.1792 -29.7318,-28.4667 -48.077,-70.8503 -17.7126,-43.0163 -17.7126,-105.6429 0,-49.9747 19.6104,-97.4191 20.2429,-47.4444 58.1984,-84.1347 37.9556,-36.6904 93.6236,-58.8311 55.6681,-22.1407 127.7836,-22.1407 80.9718,0 149.2917,25.3037 68.3199,25.3037 116.3969,70.8503 z"
     style="font-style:normal;font-variant:normal;font-weight:bold;font-stretch:normal;font-family:Lato;-inkscape-font-specification:'Lato Bold';stroke-width:31.62959099"
     id="path5290"
     inkscape:connector-curvature="0" /><path
     d="m 7073.4458,3636.1299 q 0,-30.3644 -8.8563,-56.9332 -8.2237,-27.2015 -25.3037,-47.4444 -17.08,-20.2429 -43.6488,-31.6296 -25.9363,-12.0192 -60.7288,-12.0192 -67.6874,0 -106.9081,38.5881 -38.5881,38.5881 -49.3421,109.4383 z m -297.9508,94.2562 q 3.7956,49.9748 17.7126,86.6651 13.917,36.0578 36.6903,60.0962 22.7733,23.4059 53.7703,35.4252 31.6296,11.3866 69.5851,11.3866 37.9555,0 65.157,-8.8562 27.834,-8.8563 48.077,-19.6104 20.8755,-10.7541 36.0577,-19.6103 15.8148,-8.8563 30.3644,-8.8563 19.6103,0 29.0992,14.5496 l 44.914,56.9333 q -25.9362,30.3644 -58.1984,51.2399 -32.2622,20.2429 -67.6873,32.8948 -34.7926,12.0192 -71.4829,17.08 -36.0577,5.0607 -70.2177,5.0607 -67.6873,0 -125.8858,-22.1407 -58.1984,-22.7733 -101.2147,-66.4222 -43.0162,-44.2814 -67.6873,-108.8058 -24.6711,-65.1569 -24.6711,-150.5568 0,-66.4222 21.5081,-124.6206 21.5082,-58.8311 61.3614,-101.8473 40.4859,-43.6489 98.0518,-68.9525 58.1984,-25.3037 130.9465,-25.3037 61.3614,0 113.2339,19.6103 51.8726,19.6104 89.1955,57.5659 37.3229,37.3229 58.1984,92.3584 21.5082,54.4029 21.5082,124.6206 0,35.4252 -7.5911,48.077 -7.5911,12.0192 -29.0993,12.0192 z"
     style="font-style:normal;font-variant:normal;font-weight:bold;font-stretch:normal;font-family:Lato;-inkscape-font-specification:'Lato Bold';stroke-width:31.62959099"
     id="path5292"
     inkscape:connector-curvature="0" /><path
     d="m 7794.8575,3523.5286 q -6.9585,8.8563 -13.917,13.917 -6.3259,5.0608 -18.9777,5.0608 -12.0193,0 -23.4059,-6.9586 -11.3867,-7.5911 -27.2015,-16.4473 -15.8148,-9.4889 -37.9555,-16.4474 -21.5081,-7.5911 -53.7703,-7.5911 -41.1185,0 -72.1155,15.1822 -30.997,14.5496 -51.8725,42.3836 -20.2429,27.8341 -30.3644,67.6874 -10.1215,39.2206 -10.1215,89.1954 0,51.8725 10.7541,92.3584 11.3866,40.4859 32.2622,68.3199 20.8755,27.2015 50.6073,41.7511 29.7318,13.917 67.0547,13.917 37.323,0 60.0963,-8.8563 23.4059,-9.4888 39.2207,-20.2429 15.8148,-11.3867 27.2014,-20.2429 12.0193,-9.4889 26.5689,-9.4889 18.9777,0 28.4666,14.5496 l 44.914,56.9333 q -25.9362,30.3644 -56.3006,51.2399 -30.3645,20.2429 -63.2592,32.8948 -32.2622,12.0192 -67.0548,17.08 -34.1599,5.0607 -68.3199,5.0607 -60.0962,0 -113.2339,-22.1407 -53.1377,-22.7733 -92.991,-65.7896 -39.8533,-43.0162 -63.2592,-105.0102 -22.7733,-62.6266 -22.7733,-142.3332 0,-71.4829 20.2429,-132.2117 20.8755,-61.3614 60.7288,-105.6428 39.8533,-44.9141 98.6844,-70.2177 58.831,-25.3037 135.3746,-25.3037 72.7481,0 127.151,23.4059 55.0355,23.4059 98.6843,67.0547 z"
     style="font-style:normal;font-variant:normal;font-weight:bold;font-stretch:normal;font-family:Lato;-inkscape-font-specification:'Lato Bold';stroke-width:31.62959099"
     id="path5294"
     inkscape:connector-curvature="0" /><path
     d="m 8087.6487,3498.8575 q 30.3644,-58.1984 72.1155,-91.0932 41.7511,-33.5274 98.6843,-33.5274 44.914,0 72.1155,19.6104 l -10.1215,117.0295 q -3.1629,11.3866 -9.4889,16.4473 -5.6933,4.4282 -15.8147,4.4282 -9.4889,0 -28.4667,-3.163 -18.3451,-3.1629 -36.0577,-3.1629 -25.9363,0 -46.1792,7.5911 -20.243,7.5911 -36.6904,22.1407 -15.8147,13.917 -28.4666,34.16 -12.0192,20.2429 -22.7733,46.1792 v 399.798 h -156.2502 v -649.0392 h 91.7258 q 24.0385,0 33.5274,8.8562 9.4889,8.2237 12.6518,30.3645 z"
     style="font-style:normal;font-variant:normal;font-weight:bold;font-stretch:normal;font-family:Lato;-inkscape-font-specification:'Lato Bold';stroke-width:31.62959099"
     id="path5296"
     inkscape:connector-curvature="0" /><path
     d="m 8813.0733,3636.1299 q 0,-30.3644 -8.8563,-56.9332 -8.2236,-27.2015 -25.3036,-47.4444 -17.08,-20.2429 -43.6489,-31.6296 -25.9362,-12.0192 -60.7288,-12.0192 -67.6873,0 -106.908,38.5881 -38.5881,38.5881 -49.3422,109.4383 z m -297.9507,94.2562 q 3.7955,49.9748 17.7125,86.6651 13.9171,36.0578 36.6904,60.0962 22.7733,23.4059 53.7703,35.4252 31.6296,11.3866 69.5851,11.3866 37.9555,0 65.1569,-8.8562 27.8341,-8.8563 48.077,-19.6104 20.8756,-10.7541 36.0578,-19.6103 15.8148,-8.8563 30.3644,-8.8563 19.6103,0 29.0992,14.5496 l 44.914,56.9333 q -25.9363,30.3644 -58.1984,51.2399 -32.2622,20.2429 -67.6874,32.8948 -34.7925,12.0192 -71.4828,17.08 -36.0578,5.0607 -70.2177,5.0607 -67.6874,0 -125.8858,-22.1407 -58.1985,-22.7733 -101.2147,-66.4222 -43.0163,-44.2814 -67.6873,-108.8058 -24.6711,-65.1569 -24.6711,-150.5568 0,-66.4222 21.5081,-124.6206 21.5081,-58.8311 61.3614,-101.8473 40.4859,-43.6489 98.0517,-68.9525 58.1985,-25.3037 130.9466,-25.3037 61.3614,0 113.2339,19.6103 51.8725,19.6104 89.1954,57.5659 37.323,37.3229 58.1985,92.3584 21.5081,54.4029 21.5081,124.6206 0,35.4252 -7.5911,48.077 -7.5911,12.0192 -29.0992,12.0192 z"
     style="font-style:normal;font-variant:normal;font-weight:bold;font-stretch:normal;font-family:Lato;-inkscape-font-specification:'Lato Bold';stroke-width:31.62959099"
     id="path5298"
     inkscape:connector-curvature="0" /><path
     d="m 9278.4633,4045.4169 q -84.7673,0 -130.3139,-47.4444 -44.914,-48.077 -44.914,-132.2117 v -362.4751 h -66.4222 q -12.6518,0 -21.5081,-8.2237 -8.8563,-8.2237 -8.8563,-24.6711 v -61.994 l 104.3777,-17.08 32.8947,-177.1257 q 3.163,-12.6519 12.0193,-19.6104 8.8563,-6.9585 22.7733,-6.9585 h 80.9717 v 204.3272 h 173.3302 v 111.3362 h -173.3302 v 351.721 q 0,30.3644 14.5497,47.4444 15.1822,17.08 41.1184,17.08 14.5496,0 24.0385,-3.163 10.1215,-3.7955 17.08,-7.5911 7.5911,-3.7955 13.2844,-6.9585 5.6934,-3.7955 11.3867,-3.7955 6.9585,0 11.3866,3.7955 4.4282,3.163 9.4889,10.1215 l 46.8118,75.911 q -34.16,28.4667 -78.4414,43.0163 -44.2814,14.5496 -91.7258,14.5496 z"
     style="font-style:normal;font-variant:normal;font-weight:bold;font-stretch:normal;font-family:Lato;-inkscape-font-specification:'Lato Bold';stroke-width:31.62959099"
     id="path5300"
     inkscape:connector-curvature="0" /><path
     d="m 10033.501,3255.9422 v 270.7494 h 342.865 v 136.0072 h -342.865 v 372.5966 h -170.7997 v -914.7278 h 576.9237 v 135.3746 z"
     style="font-style:normal;font-variant:normal;font-weight:bold;font-stretch:normal;font-family:Lato;-inkscape-font-specification:'Lato Bold';stroke-width:31.62959099"
     id="path5302"
     inkscape:connector-curvature="0" /><path
     d="m 10811.016,3758.2202 q -67.687,3.1629 -113.866,12.0192 -46.18,8.2237 -74.014,21.5081 -27.834,13.2845 -39.853,30.997 -12.019,17.7126 -12.019,38.5881 0,41.1185 24.038,58.8311 24.671,17.7126 63.892,17.7126 48.077,0 82.87,-17.08 35.425,-17.7126 68.952,-53.1377 z m -358.047,-281.5034 q 111.969,-102.4799 269.484,-102.4799 56.933,0 101.848,18.9778 44.914,18.3451 75.911,51.8725 30.997,32.8948 46.811,79.074 16.448,46.1792 16.448,101.2147 v 409.9195 h -70.851 q -22.14,0 -34.16,-6.3259 -12.019,-6.9585 -18.977,-27.2015 l -13.917,-46.8118 q -24.671,22.1408 -48.077,39.2207 -23.406,16.4474 -48.71,27.8341 -25.304,11.3866 -54.403,17.08 -28.466,6.3259 -63.259,6.3259 -41.118,0 -75.911,-10.7541 -34.793,-11.3866 -60.096,-33.5274 -25.304,-22.1407 -39.221,-55.0354 -13.917,-32.8948 -13.917,-76.5437 0,-24.671 8.224,-48.7095 8.223,-24.6711 26.569,-46.8118 18.977,-22.1407 48.709,-41.7511 29.732,-19.6103 72.748,-34.16 43.649,-14.5496 101.215,-23.4058 57.566,-9.4889 131.579,-11.3867 v -37.9555 q 0,-65.157 -27.834,-96.154 -27.834,-31.6296 -80.339,-31.6296 -37.956,0 -63.259,8.8563 -24.671,8.8563 -43.649,20.243 -18.978,10.754 -34.793,19.6103 -15.182,8.8563 -34.16,8.8563 -16.447,0 -27.834,-8.2237 -11.386,-8.8563 -18.345,-20.2429 z"
     style="font-style:normal;font-variant:normal;font-weight:bold;font-stretch:normal;font-family:Lato;-inkscape-font-specification:'Lato Bold';stroke-width:31.62959099"
     id="path5304"
     inkscape:connector-curvature="0" /><path
     d="m 11575.582,3523.5286 q -6.958,8.8563 -13.917,13.917 -6.326,5.0608 -18.977,5.0608 -12.02,0 -23.406,-6.9586 -11.387,-7.5911 -27.202,-16.4473 -15.815,-9.4889 -37.955,-16.4474 -21.508,-7.5911 -53.771,-7.5911 -41.118,0 -72.115,15.1822 -30.997,14.5496 -51.873,42.3836 -20.242,27.8341 -30.364,67.6874 -10.121,39.2206 -10.121,89.1954 0,51.8725 10.754,92.3584 11.386,40.4859 32.262,68.3199 20.875,27.2015 50.607,41.7511 29.732,13.917 67.055,13.917 37.323,0 60.096,-8.8563 23.406,-9.4888 39.221,-20.2429 15.815,-11.3867 27.201,-20.2429 12.02,-9.4889 26.569,-9.4889 18.978,0 28.467,14.5496 l 44.914,56.9333 q -25.936,30.3644 -56.301,51.2399 -30.364,20.2429 -63.259,32.8948 -32.262,12.0192 -67.055,17.08 -34.16,5.0607 -68.32,5.0607 -60.096,0 -113.234,-22.1407 -53.137,-22.7733 -92.991,-65.7896 -39.853,-43.0162 -63.259,-105.0102 -22.773,-62.6266 -22.773,-142.3332 0,-71.4829 20.243,-132.2117 20.875,-61.3614 60.729,-105.6428 39.853,-44.9141 98.684,-70.2177 58.831,-25.3037 135.375,-25.3037 72.748,0 127.151,23.4059 55.035,23.4059 98.684,67.0547 z"
     style="font-style:normal;font-variant:normal;font-weight:bold;font-stretch:normal;font-family:Lato;-inkscape-font-specification:'Lato Bold';stroke-width:31.62959099"
     id="path5306"
     inkscape:connector-curvature="0" /><path
     d="m 12126.768,3636.1299 q 0,-30.3644 -8.857,-56.9332 -8.223,-27.2015 -25.303,-47.4444 -17.08,-20.2429 -43.649,-31.6296 -25.936,-12.0192 -60.729,-12.0192 -67.687,0 -106.908,38.5881 -38.588,38.5881 -49.342,109.4383 z m -297.951,94.2562 q 3.795,49.9748 17.712,86.6651 13.917,36.0578 36.691,60.0962 22.773,23.4059 53.77,35.4252 31.63,11.3866 69.585,11.3866 37.956,0 65.157,-8.8562 27.834,-8.8563 48.077,-19.6104 20.876,-10.7541 36.058,-19.6103 15.815,-8.8563 30.364,-8.8563 19.611,0 29.1,14.5496 l 44.914,56.9333 q -25.937,30.3644 -58.199,51.2399 -32.262,20.2429 -67.687,32.8948 -34.793,12.0192 -71.483,17.08 -36.058,5.0607 -70.218,5.0607 -67.687,0 -125.886,-22.1407 -58.198,-22.7733 -101.214,-66.4222 -43.017,-44.2814 -67.688,-108.8058 -24.671,-65.1569 -24.671,-150.5568 0,-66.4222 21.508,-124.6206 21.509,-58.8311 61.362,-101.8473 40.486,-43.6489 98.052,-68.9525 58.198,-25.3037 130.946,-25.3037 61.362,0 113.234,19.6103 51.873,19.6104 89.195,57.5659 37.323,37.3229 58.199,92.3584 21.508,54.4029 21.508,124.6206 0,35.4252 -7.591,48.077 -7.591,12.0192 -29.099,12.0192 z"
     style="font-style:normal;font-variant:normal;font-weight:bold;font-stretch:normal;font-family:Lato;-inkscape-font-specification:'Lato Bold';stroke-width:31.62959099"
     id="path5308"
     inkscape:connector-curvature="0" /><path
     d="m 12539.474,3867.026 q 26.569,32.2622 57.566,45.5466 31.63,13.2844 66.422,13.2844 36.058,0 64.525,-12.6518 29.099,-13.2844 49.342,-40.4859 20.243,-27.834 30.997,-70.2177 10.754,-43.0162 10.754,-102.4799 0,-106.908 -35.425,-154.3524 -35.425,-48.077 -101.848,-48.077 -44.914,0 -78.441,20.8756 -33.527,20.2429 -63.892,57.5658 z m 0,-401.0633 q 39.221,-41.1184 86.665,-65.1569 48.077,-24.6711 109.439,-24.6711 56.3,0 101.214,22.1407 45.547,22.1407 77.177,63.8918 32.262,41.1185 49.342,99.9495 17.08,58.831 17.08,132.2117 0,79.074 -19.611,143.5984 -19.61,64.5243 -56.3,110.7035 -36.058,45.5466 -87.298,70.8503 -51.24,25.3037 -113.866,25.3037 -30.365,0 -55.036,-6.3259 -24.671,-5.6934 -45.547,-16.4474 -20.875,-10.7541 -38.588,-25.9363 -17.08,-15.8148 -32.894,-34.7925 l -6.959,43.6488 q -3.796,16.4474 -13.284,23.4059 -8.857,6.9585 -24.671,6.9585 h -103.113 v -940.0315 h 156.25 z"
     style="font-style:normal;font-variant:normal;font-weight:bold;font-stretch:normal;font-family:Lato;-inkscape-font-specification:'Lato Bold';stroke-width:31.62959099"
     id="path5310"
     inkscape:connector-curvature="0" /><path
     d="m 13389.5,3376.1347 q 72.115,0 130.946,23.4059 59.464,23.4059 101.215,66.4221 42.384,43.0163 65.157,105.0103 22.773,61.994 22.773,138.5376 0,77.1762 -22.773,139.1702 -22.773,61.994 -65.157,105.6429 -41.751,43.6488 -101.215,67.0547 -58.831,23.4059 -130.946,23.4059 -72.748,0 -132.212,-23.4059 -59.463,-23.4059 -101.847,-67.0547 -41.751,-43.6489 -65.157,-105.6429 -22.773,-61.994 -22.773,-139.1702 0,-76.5436 22.773,-138.5376 23.406,-61.994 65.157,-105.0103 42.384,-43.0162 101.847,-66.4221 59.464,-23.4059 132.212,-23.4059 z m 0,548.4571 q 80.972,0 119.56,-54.4029 39.22,-54.4029 39.22,-159.4131 0,-105.0103 -39.22,-160.0458 -38.588,-55.0354 -119.56,-55.0354 -82.237,0 -122.09,55.668 -39.221,55.0355 -39.221,159.4132 0,104.3776 39.221,159.4131 39.853,54.4029 122.09,54.4029 z"
     style="font-style:normal;font-variant:normal;font-weight:bold;font-stretch:normal;font-family:Lato;-inkscape-font-specification:'Lato Bold';stroke-width:31.62959099"
     id="path5312"
     inkscape:connector-curvature="0" /><path
     d="m 14115.992,3376.1347 q 72.116,0 130.947,23.4059 59.463,23.4059 101.214,66.4221 42.384,43.0163 65.157,105.0103 22.774,61.994 22.774,138.5376 0,77.1762 -22.774,139.1702 -22.773,61.994 -65.157,105.6429 -41.751,43.6488 -101.214,67.0547 -58.831,23.4059 -130.947,23.4059 -72.748,0 -132.212,-23.4059 -59.463,-23.4059 -101.847,-67.0547 -41.751,-43.6489 -65.157,-105.6429 -22.773,-61.994 -22.773,-139.1702 0,-76.5436 22.773,-138.5376 23.406,-61.994 65.157,-105.0103 42.384,-43.0162 101.847,-66.4221 59.464,-23.4059 132.212,-23.4059 z m 0,548.4571 q 80.972,0 119.56,-54.4029 39.221,-54.4029 39.221,-159.4131 0,-105.0103 -39.221,-160.0458 -38.588,-55.0354 -119.56,-55.0354 -82.237,0 -122.09,55.668 -39.221,55.0355 -39.221,159.4132 0,104.3776 39.221,159.4131 39.853,54.4029 122.09,54.4029 z"
     style="font-style:normal;font-variant:normal;font-weight:bold;font-stretch:normal;font-family:Lato;-inkscape-font-specification:'Lato Bold';stroke-width:31.62959099"
     id="path5314"
     inkscape:connector-curvature="0" /><path
     d="m 14711.538,3095.2639 v 538.3357 h 29.099 q 15.815,0 24.672,-3.7956 9.488,-4.4281 18.977,-17.08 l 161.311,-199.2664 q 10.122,-13.2844 22.141,-20.2429 12.652,-6.9585 32.262,-6.9585 h 142.966 l -201.797,241.0175 q -21.508,28.4666 -46.812,43.6488 13.285,9.4889 23.406,22.1407 10.754,12.6519 20.243,27.2015 l 216.347,315.0307 h -141.068 q -18.346,0 -31.63,-5.6933 -13.284,-6.3259 -22.141,-22.1407 l -165.739,-246.0783 q -8.856,-14.5496 -18.345,-18.9777 -9.489,-4.4282 -28.467,-4.4282 h -35.425 v 297.3182 h -156.25 v -940.0315 z"
     style="font-style:normal;font-variant:normal;font-weight:bold;font-stretch:normal;font-family:Lato;-inkscape-font-specification:'Lato Bold';stroke-width:31.62959099"
     id="path5316"
     inkscape:connector-curvature="0" /><path
     d="m 15775.992,3694.961 q 29.1,0 50.608,-7.5911 21.508,-8.2237 35.425,-22.1407 14.549,-13.917 21.508,-33.5274 7.591,-19.6103 7.591,-43.0162 0,-48.077 -29.099,-75.9111 -28.467,-28.4666 -86.033,-28.4666 -57.565,0 -86.665,28.4666 -28.466,27.8341 -28.466,75.9111 0,22.7733 6.958,42.3836 7.591,19.6104 21.508,34.16 14.55,13.917 36.058,22.1407 22.141,7.5911 50.607,7.5911 z m 176.494,369.4336 q 0,-18.9777 -11.387,-30.997 -11.387,-12.0192 -30.997,-18.3451 -19.61,-6.9585 -46.179,-10.1215 -25.937,-3.163 -55.668,-4.4281 -29.1,-1.8978 -60.729,-3.163 -30.997,-1.2652 -60.729,-5.0607 -25.936,14.5496 -42.384,34.1599 -15.815,19.6104 -15.815,45.5466 0,17.08 8.224,31.6296 8.856,15.1822 27.202,25.9363 18.977,10.7541 48.709,16.4474 29.732,6.3259 72.748,6.3259 43.649,0 75.279,-6.9585 31.629,-6.3259 51.872,-18.3452 20.876,-11.3866 30.365,-27.834 9.489,-15.8148 9.489,-34.7926 z m 155.617,-655.9977 v 58.1984 q 0,27.8341 -33.527,34.16 l -58.199,10.7541 q 13.285,33.5273 13.285,73.3806 0,48.077 -19.611,87.2977 -18.977,38.5881 -53.137,65.7895 -34.16,27.2015 -80.972,42.3837 -46.179,14.5496 -99.95,14.5496 -18.977,0 -36.69,-1.8978 -17.713,-1.8977 -34.792,-5.0607 -30.365,18.3452 -30.365,41.1185 0,19.6103 17.713,29.0992 18.345,8.8563 48.077,12.6518 29.731,3.7956 67.687,5.0608 37.955,0.6326 77.809,3.7955 39.853,3.163 77.809,11.3867 37.955,7.5911 67.687,24.671 29.732,17.08 47.444,46.8118 18.345,29.0993 18.345,75.2785 0,43.0162 -21.508,83.5021 -20.875,40.4859 -61.361,72.1155 -39.853,31.6296 -98.684,50.6073 -58.199,19.6104 -132.845,19.6104 -73.38,0 -127.783,-14.5496 -54.403,-13.9171 -90.461,-37.9556 -36.058,-23.4059 -53.77,-54.4029 -17.713,-30.997 -17.713,-64.5243 0,-45.5466 27.202,-75.911 27.834,-30.997 75.911,-49.3422 -25.937,-13.2844 -41.119,-35.4252 -15.182,-22.1407 -15.182,-58.1984 0,-14.5496 5.061,-29.7318 5.693,-15.8148 15.815,-30.997 10.754,-15.1822 26.568,-28.4667 15.815,-13.917 37.323,-24.671 -49.342,-26.5689 -77.808,-70.8503 -27.834,-44.2815 -27.834,-103.7451 0,-48.077 18.977,-86.6651 19.611,-39.2207 53.771,-66.4221 34.792,-27.8341 81.604,-42.3837 47.444,-14.5496 103.112,-14.5496 41.751,0 78.442,8.8563 36.69,8.2237 67.055,24.6711 z"
     style="font-style:normal;font-variant:normal;font-weight:bold;font-stretch:normal;font-family:Lato;-inkscape-font-specification:'Lato Bold';stroke-width:31.62959099"
     id="path5318"
     inkscape:connector-curvature="0" /><path
     d="m 16353.351,3498.8575 q 30.364,-58.1984 72.115,-91.0932 41.751,-33.5274 98.685,-33.5274 44.914,0 72.115,19.6104 l -10.121,117.0295 q -3.163,11.3866 -9.489,16.4473 -5.694,4.4282 -15.815,4.4282 -9.489,0 -28.467,-3.163 -18.345,-3.1629 -36.057,-3.1629 -25.937,0 -46.18,7.5911 -20.243,7.5911 -36.69,22.1407 -15.815,13.917 -28.467,34.16 -12.019,20.2429 -22.773,46.1792 v 399.798 h -156.25 v -649.0392 h 91.726 q 24.038,0 33.527,8.8562 9.489,8.2237 12.652,30.3645 z"
     style="font-style:normal;font-variant:normal;font-weight:bold;font-stretch:normal;font-family:Lato;-inkscape-font-specification:'Lato Bold';stroke-width:31.62959099"
     id="path5320"
     inkscape:connector-curvature="0" /><path
     d="m 16947.829,3376.1347 q 72.116,0 130.947,23.4059 59.464,23.4059 101.215,66.4221 42.383,43.0163 65.157,105.0103 22.773,61.994 22.773,138.5376 0,77.1762 -22.773,139.1702 -22.774,61.994 -65.157,105.6429 -41.751,43.6488 -101.215,67.0547 -58.831,23.4059 -130.947,23.4059 -72.748,0 -132.211,-23.4059 -59.464,-23.4059 -101.848,-67.0547 -41.751,-43.6489 -65.156,-105.6429 -22.774,-61.994 -22.774,-139.1702 0,-76.5436 22.774,-138.5376 23.405,-61.994 65.156,-105.0103 42.384,-43.0162 101.848,-66.4221 59.463,-23.4059 132.211,-23.4059 z m 0,548.4571 q 80.972,0 119.56,-54.4029 39.221,-54.4029 39.221,-159.4131 0,-105.0103 -39.221,-160.0458 -38.588,-55.0354 -119.56,-55.0354 -82.236,0 -122.09,55.668 -39.22,55.0355 -39.22,159.4132 0,104.3776 39.22,159.4131 39.854,54.4029 122.09,54.4029 z"
     style="font-style:normal;font-variant:normal;font-weight:bold;font-stretch:normal;font-family:Lato;-inkscape-font-specification:'Lato Bold';stroke-width:31.62959099"
     id="path5322"
     inkscape:connector-curvature="0" /><path
     d="m 17946.336,3386.2562 v 649.0392 h -95.521 q -30.997,0 -39.221,-28.4666 l -10.754,-51.8726 q -39.853,40.4859 -87.93,65.7896 -48.077,24.6711 -113.234,24.6711 -53.138,0 -94.256,-17.7126 -40.486,-18.3452 -68.32,-51.2399 -27.834,-32.8948 -42.384,-77.8088 -13.917,-45.5466 -13.917,-99.9495 v -412.4499 h 156.25 v 412.4499 q 0,59.4636 27.202,92.3584 27.834,32.2622 82.869,32.2622 40.486,0 75.911,-17.7126 35.425,-18.3452 67.055,-49.9748 v -469.3831 z"
     style="font-style:normal;font-variant:normal;font-weight:bold;font-stretch:normal;font-family:Lato;-inkscape-font-specification:'Lato Bold';stroke-width:31.62959099"
     id="path5324"
     inkscape:connector-curvature="0" /><path
     d="m 18257.512,3867.026 q 26.569,32.2622 57.566,45.5466 31.629,13.2844 68.32,13.2844 35.425,0 63.891,-13.2844 28.467,-13.2844 48.077,-40.4859 20.243,-27.2014 30.997,-68.3199 10.754,-41.7511 10.754,-98.0517 0,-56.9333 -9.488,-96.154 -8.857,-39.8533 -25.937,-64.5244 -17.08,-24.6711 -41.751,-36.0577 -24.038,-11.3867 -55.035,-11.3867 -48.71,0 -82.87,20.8756 -34.16,20.2429 -64.524,57.5658 z m -8.224,-392.207 q 39.853,-44.914 90.461,-72.748 50.607,-27.8341 118.927,-27.8341 53.138,0 96.787,22.1407 44.281,22.1407 75.911,64.5244 32.262,41.7511 49.342,103.7451 17.712,61.3614 17.712,141.068 0,72.748 -19.61,134.742 -19.61,61.994 -56.301,107.5406 -36.057,45.5466 -87.93,71.4829 -51.24,25.3037 -115.132,25.3037 -54.403,0 -92.991,-16.4474 -38.588,-17.08 -68.952,-46.8118 v 265.6886 h -156.25 v -860.9575 h 95.521 q 30.364,0 39.853,28.4666 z"
     style="font-style:normal;font-variant:normal;font-weight:bold;font-stretch:normal;font-family:Lato;-inkscape-font-specification:'Lato Bold';stroke-width:31.62959099"
     id="path5326"
     inkscape:connector-curvature="0" /></g></svg>