<?xml version="1.0" encoding="UTF-8" standalone="no"?>
<svg
   xmlns:dc="http://purl.org/dc/elements/1.1/"
   xmlns:cc="http://creativecommons.org/ns#"
   xmlns:rdf="http://www.w3.org/1999/02/22-rdf-syntax-ns#"
   xmlns:svg="http://www.w3.org/2000/svg"
   xmlns="http://www.w3.org/2000/svg"
   xmlns:sodipodi="http://sodipodi.sourceforge.net/DTD/sodipodi-0.dtd"
   xmlns:inkscape="http://www.inkscape.org/namespaces/inkscape"
   version="1.1"
   viewBox="0 0 519.75934 305.47046"
   width="519.75934pt"
   height="305.47046pt"
   id="svg128"
   sodipodi:docname="recovering-from-religion.svg"
   inkscape:version="0.92.4 5da689c313, 2019-01-14">
  <metadata
     id="metadata134">
    <rdf:RDF>
      <cc:Work
         rdf:about="">
        <dc:format>image/svg+xml</dc:format>
        <dc:type
           rdf:resource="http://purl.org/dc/dcmitype/StillImage" />
        <dc:title></dc:title>
      </cc:Work>
    </rdf:RDF>
  </metadata>
  <defs
     id="defs132" />
  <sodipodi:namedview
     pagecolor="#ffffff"
     bordercolor="#666666"
     borderopacity="1"
     objecttolerance="10"
     gridtolerance="10"
     guidetolerance="10"
     inkscape:pageopacity="0"
     inkscape:pageshadow="2"
     inkscape:window-width="1909"
     inkscape:window-height="2105"
     id="namedview130"
     showgrid="false"
     fit-margin-top="0"
     fit-margin-left="0"
     fit-margin-right="0"
     fit-margin-bottom="0"
     inkscape:zoom="0.71"
     inkscape:cx="549.74572"
     inkscape:cy="358.85938"
     inkscape:window-x="1924"
     inkscape:window-y="28"
     inkscape:window-maximized="1"
     inkscape:current-layer="svg128" />
  <path
     style="fill:#565656;stroke-width:0.99999994"
     d="M 13.148915,5.6783573e-4 C 8.7789145,0.00431783 4.4085624,0.02623283 0.03856211,0.05623283 0.05856461,20.236229 0.03881636,40.406504 0.04881461,60.586507 c 0.06,5.300002 -0.4098045,10.41039 0.70019551,15.650392 2.94000008,0.02003 5.86957058,-6e-5 8.80957058,-0.06007 0.08,-10.299997 -0.069435,-20.600625 0.080566,-30.890625 5.2200013,-0.02003 10.4301373,-0.05993 15.6401363,0.06007 4.899999,8.509995 9.839709,16.990508 14.69971,25.520505 0.980001,1.689998 1.980997,3.490215 3.270997,4.970213 2.989995,0.860002 6.529882,0.309082 9.62988,0.309082 C 46.929873,65.486077 40.529523,55.085902 34.519518,44.465901 c 4.610002,-1.760002 8.919532,-3.568867 12.269535,-7.33887 6.18,-6.429997 6.790072,-17.67105 2.080072,-25.081052 C 44.029129,4.1459784 35.299264,0.34623159 26.259266,0.05623208 c -4.37,-0.045 -8.740351,-0.059415 -13.110351,-0.0556642443 z M 16.9912,8.005939 c 2.4275,0.015 4.857344,0.066015 7.277344,0.041018 4.67,-0.039998 9.940003,0.738828 13.499998,4.048827 4.670002,4.31 5.13057,11.901073 2.330565,17.351076 -2.739998,5.01 -8.38041,7.530232 -13.920407,7.740232 -5.53,0.15 -11.059355,-0.01073 -16.5893558,0.02933 0.1,-9.66 -0.2393752,-19.390525 0.140625,-29.0405238 C 12.13997,8.0108982 14.5637,7.990976 16.9912,8.005976 Z"
     id="path4"
     inkscape:connector-curvature="0" />
  <path
     style="fill:#565656;stroke-width:0.99999994"
     d="M 81.0371,21.919025 C 68.466432,22.22387 57.588372,34.418361 56.619619,46.566486 c -1.59,13.8 8.490135,27.370238 21.640133,30.990233 5.950005,1.2 12.62922,0.69996 18.199223,-1.79004 4.739995,-2.139998 8.299705,-5.839763 10.949705,-10.25976 -2.29,-1.62 -4.61902,-3.160628 -6.99902,-4.640626 -2.740005,3.909998 -5.419823,7.349528 -10.319828,8.519528 -5.329995,1.190003 -12.04992,1.42074 -16.66992,-1.989255 -5.559997,-3.910005 -8.280075,-10.270725 -8.08008,-16.990725 14.529998,-0.02003 29.04885,-0.01 43.568848,0 0.23,-9.879998 -5.309,-18.70902 -13.229,-24.249023 -3.99,-2.85 -8.510903,-4.250468 -13.420898,-4.230473 -0.40875,-0.0153 -0.81618,-0.01718 -1.221682,-0.0075 z m 1.932127,7.955566 c 4.019303,-0.05205 8.06373,1.30395 10.870605,4.122075 2.58,2.319997 4.009335,5.229292 5.569335,8.279295 -10.98,0.27 -22.020255,0.181012 -33.010253,0.04102 2.060003,-3.819998 4.131053,-7.341015 7.831058,-9.79101 2.502495,-1.719375 5.613128,-2.610863 8.739255,-2.65137 z"
     id="path10"
     inkscape:connector-curvature="0" />
  <path
     d="m 140.25926,21.926504 c 7.24,-0.29 13.45,3.27 18.51,8.15 0.89,0.96 1.87,1.86 2.13,3.19 -1.45,1.54 -3.18,2.84 -4.8,4.19 -3.07,-2.83 -6.06,-6.23 -10.31,-7.18 -4.68,-0.85 -9.48,-0.38 -13.44,2.43 -7.45,5.3 -10.46,15.12 -7.97,23.82 2.14,7.98 9.27,14.41 17.88,13.6 5.78,0.07 9.92,-2.98 13.58,-7.1 1.99,1.42 3.97,2.83 5.96,4.26 0.09,0.51 0.19,1.01 0.28,1.51 -2.67,2.75 -5.15,5.35 -8.71,6.97 -4.72,2.32 -9.98,2.8 -15.15,2.11 -15.23,-3.01 -26.68,-19.83 -22.55,-35.09 2.69,-10.89 12.88,-21.06 24.59,-20.86 z"
     id="path12"
     inkscape:connector-curvature="0"
     style="fill:#565656" />
  <path
     style="fill:#565656;stroke-width:0.99999994"
     d="m 191.73827,21.935135 c -1.7898,0.06045 -3.5693,0.304455 -5.2793,0.720705 -13.38999,3.950003 -22.29941,19.020923 -18.89941,32.690918 2.69,12.480001 15.46972,24.220178 28.71973,22.680181 14.91,-2.080005 26.1898,-18.761116 22.5498,-33.391118 -2.06,-9.499995 -9.25934,-17.908688 -18.31934,-21.408691 -2.775,-0.981247 -5.78847,-1.392772 -8.77148,-1.291995 z m 1.30518,7.976078 c 3.2775,-0.104062 6.52019,0.63738 9.32519,2.50488 7.34,4.89 10.19033,15.590723 7.34033,23.740725 -2.34999,7.839998 -9.89021,14.789198 -18.47021,13.929203 -8.84,-0.81 -14.91932,-9.040238 -15.54932,-17.49024 -1.09,-9.39 4.47008,-19.999568 14.08008,-22.309568 1.085,-0.212497 2.18143,-0.340312 3.27393,-0.375 z"
     id="path14"
     inkscape:connector-curvature="0" />
  <path
     style="fill:#565656;stroke-width:0.99999994"
     d="m 299.86864,21.864823 c -11.86014,0.09727 -22.17568,10.522853 -24.52881,21.782228 -3.3,14.650005 6.92987,29.929163 21.10987,33.889163 10.79,2.19 22.95941,-1.049123 28.64941,-11.099123 0.02,-2.61 -4.6497,-4.160798 -6.4497,-5.570798 -2.48,3.780001 -5.01983,7.030058 -9.56983,8.310053 -5.5,1.490003 -12.73074,1.710105 -17.51074,-1.8999 -5.2,-3.609997 -8.22932,-10.269548 -8.04932,-16.539548 1.22,-0.230002 2.45924,-0.35061 3.71924,-0.370605 13.33,0.01 26.66024,0.120195 39.99024,-0.0498 0.27,-13.5 -11.27973,-27.390075 -24.96973,-28.33008 -0.8025,-0.08812 -1.59995,-0.128063 -2.39063,-0.121583 z m 2.12403,8.002448 c 3.21701,0.09398 6.39062,1.104472 8.90625,3.068842 3.3,2.49 5.00986,5.819903 6.85986,9.399908 -11,0.129997 -22.03929,0.151207 -33.0293,-0.0088 1.66001,-3.080003 3.2602,-6.021075 5.9502,-8.351078 2.97,-2.835 7.17683,-4.229715 11.31299,-4.108882 z"
     id="path16"
     inkscape:connector-curvature="0" />
  <path
     d="m 367.40926,23.316504 c 5.62,2.05 9.09,6.32 11.79,11.47 -2.33,1.22 -4.68,2.4 -7.04,3.56 -2.38,-3.22 -4.27,-6.94 -8.45,-8 -4.49,-0.89 -9.56,-0.76 -13.01,2.67 -3.96,3.75 -5.31,10.31 -5.67,15.53 -0.21,9.23 0.07,18.47 -0.13,27.71 -2.73,-0.01 -5.45,-0.05 -8.17,-0.16 -0.44,-5.53 -0.23,-10.98 -0.26,-16.51 0.01,-12.07 -0.03,-24.15 0.02,-36.22 2.24,0.02 4.52,-0.09 6.74,0.22 0.8,0.75 1.57,1.54 2.3,2.36 6.35,-4.81 14.55,-4.98 21.88,-2.63 z"
     id="path18"
     inkscape:connector-curvature="0"
     style="fill:#565656" />
  <path
     d="m 423.28926,22.496504 c 9.43,-1.78 19.73,0.26 25.81,8.2 4.62,5.78 4.26,12.9 4.35,19.89 -0.2,8.55 0.39,17.19 -0.42,25.71 -2.6,-0.03 -5.43,0.14 -7.96,-0.5 -0.31,-1.39 -0.36,-2.77 -0.4,-4.18 -0.04,-10.02 0.16,-20.05 -0.04,-30.06 -0.2,-5.1 -3.53,-9.37 -8.39,-10.85 -4.74,-1.36 -10.84,-1.33 -14.69,2.2 -4.67,3.87 -6.55,10.82 -6.67,16.67 -0.08,8.88 0.08,17.76 -0.07,26.65 -2.67,0.01 -5.34,0 -8.02,-0.03 -1.18,-5.58 -0.63,-10.97 -0.72,-16.61 -0.06,-11.92 0.1,-23.83 -0.09,-35.75 3.13,-0.56 5.55,-0.51 8.63,0.25 0.12,0.86 0.24,1.72 0.36,2.58 2.65,-1.63 5.24,-3.45 8.32,-4.17 z"
     id="path20"
     inkscape:connector-curvature="0"
     style="fill:#565656" />
  <path
     style="fill:#565656;stroke-width:0.99999994"
     d="m 488.20214,21.913168 c -3.80735,0.0098 -7.64734,0.799957 -10.93359,2.663085 -4.37,2.419995 -8.06973,6.099825 -10.71973,10.31982 -5.1,7.990005 -5.43992,18.951 -0.91992,27.270998 4.48,8.480003 13.71086,15.978773 23.63086,15.98877 6.86,0.12 12.24006,-3.169432 17.31006,-7.419435 -0.24,4.270005 -0.22127,8.920763 -2.30127,12.780765 -2.32,4.38 -7.07924,6.878655 -11.96924,6.86865 -6.15,0.110003 -12.29971,-0.02925 -18.44971,0.03075 0.27,2.329995 -0.78093,6.170235 1.28907,7.740233 3.66999,0.42 7.43109,0.149475 11.12109,0.209475 4.85,-0.05003 9.88004,0.380542 14.54004,-1.189455 5.66,-1.8 10.38965,-6.160275 12.38964,-11.780273 2.23001,-5.800005 1.64999,-11.70957 1.72999,-17.809575 -0.09,-14.509995 0.15962,-29.031015 -0.13037,-43.541011 -2.73,-0.530002 -5.48026,-0.710002 -8.26025,-0.75 -0.03,2.13 -0.0594,4.269901 -0.0894,6.399901 -4.08999,-3.009998 -7.9706,-6.358868 -13.1206,-7.338871 -1.6625,-0.290625 -3.38608,-0.448267 -5.1167,-0.443842 z m 0.67676,7.974608 c 4.52975,-0.07245 8.83725,1.552365 11.98975,5.07861 5.39,5.620005 6.18062,13.2501 4.64062,20.6001 -2.21,7.95 -9.58953,15.17004 -18.26953,14.54004 -8.11,-0.51 -14.01033,-7.20033 -15.59033,-14.840333 -2.49,-10.17 3.28982,-22.739085 14.06982,-25.059082 1.0575,-0.195 2.11434,-0.302625 3.15967,-0.319335 z"
     id="path22"
     inkscape:connector-curvature="0" />
  <path
     d="m 221.28926,23.396504 c 2.6,0.18 6.19,-0.55 8.54,0.68 2.13,2.61 3.03,6.38 4.42,9.44 4.36,10.29 8.15,20.84 12.81,31 5.42,-13.77 10.95,-27.56 16.8,-41.15 2.23,0.02 4.45,0.03 6.68,0.04 0.71,0.46 1.42,0.92 2.13,1.38 -6.81,17.23 -13.88,34.36 -20.96,51.47 -2.91,0 -5.83,-0.02 -8.74,-0.08 -1.61,-3.29 -3.03,-6.67 -4.36,-10.08 -5.78,-14.23 -11.69,-28.41 -17.32,-42.7 z"
     id="path24"
     inkscape:connector-curvature="0"
     style="fill:#565656" />
  <path
     d="m 384.74926,23.376504 c 2.32,0.11 5.1,-0.32 7.28,0.48 1.91,1.33 1.38,4.7 1.51,6.74 -0.26,15.21 0.32,30.48 -0.31,45.68 -2.78,-0.01 -5.56,-0.08 -8.34,-0.26 -0.35,-17.54 -0.08,-35.1 -0.14,-52.64 z"
     id="path26"
     inkscape:connector-curvature="0"
     style="fill:#565656" />
  <path
     d="m 89.769266,97.106504 c 3.1,2.1 1.73,5.279996 0.48,8.029996 -2.37,0.38 -3.35,-2.63 -4.9,-4.02 -2.7,-2.849996 -6.46,-1.879996 -9.16,0.37 -2.37,2.11 -3.51,5.39 -4.61,8.28 -2.64,7.45 -5.29,14.84 -7.12,22.54 l 1.29,-0.06 c 4.47,-0.06 8.93,0.08 13.4,0.07 3.06,-1.88 4.93,-2.65 8.6,-1.89 -4.64,9.34 -8.51,19.36 -11.15,29.46 0.94,-1.35 1.86,-2.71 2.71,-4.11 3.61,-5.71 7.26,-11.3 11.78,-16.34 2.7,-3.02 5.91,-6.58 9.699994,-8.19 2.26,-0.92 3.99,-0.22 5.95,0.94 -0.71,3.19 -1.14,6.96 -3.08,9.67 -1.49,2.16 -4.159994,3.58 -6.279994,5.05 0.32,-3.11 1.47,-5.93 2.25,-8.92 l -0.24,-1.27 c -2.93,1.13 -4.94,2.55 -6.9,5.01 -8.02,9.91 -14.09,21.5 -18.56,33.42 -1.06,3.07 -3.55,3.51 -6.19,4.76 -0.37,-2.82 -0.54,-5.51 0.86,-8.11 1.72,-3.14 2.74,-6.12 3.49,-9.62 1.29,-5.85 3.27,-11.66 3.32,-17.51 0.05,-3.1 0.98,-5.97 2.15,-8.8 l 0.61,-1.23 c -4.95,0.4 -9.9,0.86 -14.84,1.33 -3.45,10.82 -6.4,21.8 -9.75,32.66 -2.74,8.73 -4.83,17.63 -9.8,25.44 -2.82,4.56 -7.34,8.36 -12.52,9.87 -3.6,0.99 -6.92,0.15 -10.32,-1.08 -4.92,-5.52 -3.28,-11.85 -0.73,-18 0.78,0.55 1.57,1.11 2.35,1.66 0.02,5.02 -0.7,10.67 3.47,14.35 2.99,2.32 6.34,0.36 8.68,-1.83 3.89,-3.91 6.14,-9.84 8.01,-14.95 5.3,-15.29 10.09,-30.76 14.7,-46.26 0.16,-0.51 0.31,-1.02 0.47,-1.53 -3.8,0.07 -7.6,0.1 -11.4,0.22 0.35,-2.31 1.53,-3.41 3.73,-4.02 2.81,-0.44 5.75,-0.23 8.59,-0.22 2.52,-8.4 4.62,-17.09 8.04,-25.16 2.17,-5.19 6.66,-9.399996 12.4,-9.979996 3.43,-0.3 7.13,-0.68 10.52,-0.03 z"
     id="path36"
     inkscape:connector-curvature="0"
     style="fill:#539002" />
  <path
     style="fill:#82ae4a;stroke-width:0.99999994"
     d="m 427.7788,96.856041 c -1.55,0.02002 -3.08916,0.04035 -4.63916,0.07027 l -0.18018,2.579595 -2.02002,1.149904 c -0.70999,2.9 -0.6907,5.73139 -2.2207,8.42139 -7.46,14.2 -16.71019,28.47854 -28.4502,39.51854 -8.38999,8.04 -18.48999,14.711 -28.5,20.521 -1.62,0.85 -3.57921,2.14996 -5.44921,1.95996 -6.70001,-0.49 -13.34957,-1.66957 -20.05958,-2.05957 -3.81999,-0.28 -8.17976,-0.36125 -11.75976,-1.78125 -21.87,-8.82 -41.35095,-23.37895 -56.23095,-41.66895 -1.93001,-2.23 -2.78991,-4.88994 -4.14991,-7.43994 -4.78,0.14 -9.49051,0.37963 -14.27051,-0.13036 -0.52,8.26999 -5.29992,14.62921 -9.91992,21.19921 -6.32,8.52 -14.68959,13.88033 -23.57959,19.34033 8.75,-4.82 17.95973,-10.69912 24.21972,-18.59912 3.20001,-3.78 5.72097,-7.99023 8.23096,-12.24023 0.09,4.45 -0.0401,8.89033 -0.12011,13.34033 -10.25,9.92 -22.25987,15.95951 -34.60987,22.99951 7.05,-3.39 13.82915,-7.38076 20.61914,-11.28076 4.81,-2.74 9.13079,-5.81996 13.30078,-9.45996 0.35,7.97 -0.57066,15.89084 -0.43066,23.86084 -2.41,0.49 -4.82931,0.84916 -7.29932,0.88916 -10.99999,0.14 -21.75021,1.96988 -32.72021,2.87988 9.96,0.54 19.78021,-1.02974 29.72021,-0.73975 11.33,0.18 22.74903,-0.45941 33.99903,0.60059 7.74,0.23 15.36078,0.87018 23.05078,1.68018 19.73,1.48 39.56939,3.86931 58.8794,8.27931 11.3,2.43 22.58033,5.83984 33.59033,9.33984 21.83,7.26 42.3099,16.13058 60.3999,30.60059 7.54001,6.34 14.4503,12.79039 19.05029,21.65038 10.67001,0.06 21.35028,0.0288 32.03028,0.009 7.17,-0.07 14.26894,0.13119 21.41895,-0.52881 0.03,-2.21999 0.0505,-4.44064 0.0806,-6.66064 -2.61,-2.67 -5.53068,-5.31936 -7.70068,-8.33936 -18.35,-26.05 -31.74891,-55.38115 -39.87891,-86.18115 -2.1,-7.3 -3.59031,-14.71863 -5.32031,-22.09863 -1.39,-6.15 -1.24033,-12.28008 -1.34033,-18.580089 -0.92,-0.110002 -1.83977,-0.231307 -2.75977,-0.34131 -0.34,-0.78 -0.66928,-1.569607 -1.00927,-2.349607 -1.30001,0.01 -2.61139,0.02048 -3.92139,0.02048 -0.3,0.730005 -0.58917,1.449435 -0.88917,2.169435 -9.64999,-0.06 -19.29066,0.01042 -28.93066,-0.03952 -0.08,-0.850005 -0.14998,-1.710548 -0.22998,-2.560545 z m 15.16406,8.151859 c 4.22897,0.0876 8.44586,0.88653 12.28712,2.26904 -6.83001,11.2 -14.36075,22.35005 -23.51075,31.79003 -1.82,-10.11998 -3.69989,-20.33058 -4.37988,-30.60058 4.70812,-2.50875 10.16629,-3.57117 15.60351,-3.45849 z m 16.42676,4.93798 c 1.04001,2.83 1.35963,5.65112 1.36963,8.64111 0.26,16.02 1.58027,32 2.03027,48 0.11001,10.45001 1.11966,20.83881 1.13965,31.27881 -5.29,-2.05999 -10.55038,-4.18966 -15.88036,-6.15966 -5.86001,-15.31 -11.91025,-30.94028 -15.24025,-47.03028 10.38001,-10.5 18.92107,-22.14998 26.58106,-34.72998 z m -39.96973,6.85108 c -0.45999,6.01 -0.62097,12.02025 -1.25097,18.01025 -0.6,5.78 -0.14963,11.84978 -1.36963,17.52978 -1.14,1.41 -2.81002,2.45977 -4.27002,3.50977 -10.56,7.3 -22.65071,13.95914 -35.22071,16.86914 -4.38,1.04 -8.34943,-0.0698 -12.66943,-0.79981 6.99,-3.45 13.44045,-7.58027 19.46045,-12.53027 14.4,-11.98999 25.77032,-26.53886 35.32031,-42.58886 z m -161.68066,4.34619 c 0.51439,-0.007 1.02973,-0.003 1.54687,0.009 0.68954,0.0157 1.38302,0.0477 2.08301,0.0952 -1.17999,2.52 -2.43935,4.97892 -3.83936,7.39892 -1.59,-2.33 -3.08994,-4.70945 -4.43994,-7.18945 1.56938,-0.19125 3.10625,-0.29421 4.64942,-0.31348 z m 167.28955,0.35302 c 0.5,6.47001 2.1002,12.72087 2.9502,19.13086 0.83,2.98001 -2.32973,4.30018 -3.96973,6.18018 0.05,-8.43 0.52953,-16.89103 1.01953,-25.31104 z m -161.72022,1.74024 c 0.29001,4.32 0.37061,8.66023 0.37061,12.99024 -1.66,-1.96001 -3.3092,-3.93995 -4.9292,-5.93995 1.44,-2.4 2.93859,-4.76029 4.55859,-7.05029 z m -11.58984,0.0703 c 1.67,2.33 3.31117,4.6903 4.95117,7.05029 -1.80999,2.71001 -3.71123,5.36016 -5.76123,7.91016 -0.08,-5.01999 0.05,-9.99045 0.81006,-14.96045 z m 13.95117,1.29932 c 7.47,9.70998 16.17891,18.19117 25.62891,25.95117 8.75998,7.11 18.58041,12.44991 28.92041,16.8999 -4.65,-0.15 -9.29945,-0.27129 -13.93946,-0.57129 -3.34999,-0.16999 -6.72064,-2.11892 -9.66064,-3.64892 -10.52998,-5.67 -20.03982,-13.06994 -28.31982,-21.68994 -1,-1.16 -2.09994,-2.25012 -2.18994,-3.87012 -0.37001,-4.34 -0.24946,-8.72082 -0.43946,-13.0708 z m -7.95117,7.31103 c 2.34,3.23001 6.79119,6.33917 6.22119,10.63917 0.07,7.92 0.73924,15.80021 0.71924,23.72021 -4.94,0.35 -9.86982,0.65 -14.81982,0.75 0.24999,-8.57 0.0901,-17.38965 1.1001,-25.88965 1.87998,-3.29 4.61929,-6.09973 6.77929,-9.21973 z m 210.2212,4.46925 c 0.39,2.07 0.75875,4.13017 1.21875,6.18017 6.09999,25.4 14.04031,49.73072 27.07031,72.49073 -8.06,-5.28 -16.53041,-9.79053 -25.17041,-14.04054 -0.29,-15.18999 -1.8786,-30.29021 -2.30859,-45.47021 -0.17001,-6.4 -1.01007,-12.73016 -0.81006,-19.16015 z m -201.45997,6.09081 c 9.14,9.77001 20.02965,17.65957 31.88965,23.80957 -10.25,0.04 -20.50025,-0.0905 -30.76025,0.0395 -0.64001,-7.94001 -0.9994,-15.88913 -1.1294,-23.84913 z m 163.00928,5.45948 c 2.63,13.77 6.52961,27.20933 9.84961,40.81934 -5.47,-1.77 -10.94924,-3.45003 -16.46924,-5.02002 0.07,-10.25001 0.84986,-20.45899 0.85986,-30.70899 1.91,-1.71 3.82977,-3.41033 5.75977,-5.09033 z m -12.71924,10.48974 c -0.48,7.68 -1.09089,15.36079 -1.42089,23.05079 -10.90001,-2.28 -21.69946,-4.84 -32.68946,-6.75001 12.35,-3.24999 23.67035,-9.02078 34.11035,-16.30078 z"
     id="path38"
     inkscape:connector-curvature="0" />
  <path
     d="m 85.349266,101.1165 c -2.42,-0.22 -4.72,-0.74 -6.9,0.65 -2.15,1.21 -3.31,3.29 -4.28,5.47 -3.29,8.18 -5.89,16.57 -8.42,25.01 l -1.29,0.06 c 1.83,-7.7 4.48,-15.09 7.12,-22.54 1.1,-2.89 2.24,-6.17 4.61,-8.28 2.7,-2.249996 6.46,-3.219996 9.16,-0.37 z"
     id="path40"
     inkscape:connector-curvature="0"
     style="fill:#565656" />
  <path
     style="fill:#539002;stroke-width:0.99999994"
     d="m 128.33983,126.63631 c -2.05,1.24 -3.0299,2.26084 -4.1499,4.36084 -6.91,1.54 -10.64088,6.92865 -13.65088,12.86865 -3.08,6.6 -5.67926,13.60022 -7.23926,20.72022 -0.69,4.78 -1.19125,11.19023 1.96875,15.24024 2.62001,0.94999 5.03081,1.79961 7.82081,0.8496 5.65999,-1.86999 9.95978,-6.43941 13.02978,-11.39941 4.44,-6.9 5.9898,-14.58012 6.7998,-22.62012 1.8,-1.15 3.57038,-2.34977 5.38038,-3.50976 -1.36,-0.79001 -2.90985,-1.45953 -4.08985,-2.51954 -2.32,-5.05999 -1.16963,-10.04072 -5.86963,-13.99072 z m -3.271,11.09034 c 1.32,3.33 4.53012,7.14984 3.87012,10.83984 -0.53,7.5 -3.48949,14.88068 -7.47949,21.20068 -2.87,3.89 -6.14984,8.16963 -11.58984,7.36963 -0.35,-4.2 -0.47051,-8.29086 0.72949,-12.38086 2.06,-7.74 5.34957,-15.46002 9.55957,-22.27002 1.2,-2.08 3.00016,-3.38928 4.91015,-4.75927 z"
     id="path58"
     inkscape:connector-curvature="0" />
  <path
     d="m 178.99926,129.5965 c -5.66,11.4 -12.29,21.18 -14.75,34.05 0.75,-1.31 1.49,-2.63 2.18,-3.97 5.98,-11.84 15.36,-21.32 26.36,-28.57 2.58,-1.48 5.56,-1.93 8.22,-0.36 -2.19,6.27 -6.11,11.6 -8.8,17.69 -4.72,10.04 -10.14,21.27 -10.85,32.47 l 0.93,-0.41 c 2.23,-0.9 4.44,-1.54 6.85,-1.73 0.19,4.83 -6.11,7.18 -10.05,6.32 -3.79,-1.99 -2.64,-7.08 -2.3,-10.56 2.6,-11.95 10.13,-22.81 13.16,-34.66 l 0.38,-1.42 c -2.02,0.99 -3.98,2 -5.67,3.51 -8.44,7.66 -15.19,17.01 -18.92,27.85 -0.91,2.37 -1.5,5.16 -2.99,7.24 -1.73,1.41 -4.17,2.12 -6.26,2.86 -1.41,-1.37 -0.54,-2.63 -0.33,-4.32 2.86,-12.67 7.33,-24.75 11.47,-37.02 l 0.65,-2.11 c -2.29,1.83 -4.24,3.81 -6.05,6.11 -5.47,6.9 -10.8,14 -15.42,21.51 -2.57,4.12 -4.55,8.73 -7.42,12.63 -1.74,2.42 -4.11,3.62 -6.54,5.26 -0.29,-1.55 -0.23,-2.99 0.21,-4.33 4.02,-9.41 7.39,-19.25 10.21,-29.08 0.4,-5.65 2.2,-10.87 5.53,-15.47 2.14,-2.65 5.03,-2.42 8.07,-1.91 -4.1,9.37 -9.49,18.81 -11.73,28.83 0.73,-1.05 1.46,-2.1 2.15,-3.18 5.74,-8.46 12.12,-17.63 19.98,-24.24 3.48,-2.73 7.25,-5.11 11.73,-2.99 z"
     id="path60"
     inkscape:connector-curvature="0"
     style="fill:#539002" />
  <path
     d="m 178.99926,129.5965 0.8,1.93 c -2.31,5.03 -5.48,9.6 -7.81,14.63 -2.21,4.38 -3.63,9.03 -5.56,13.52 -0.69,1.34 -1.43,2.66 -2.18,3.97 2.46,-12.87 9.09,-22.65 14.75,-34.05 z"
     id="path62"
     inkscape:connector-curvature="0"
     style="fill:#565656" />
  <path
     d="m 201.00926,130.7465 1.12,0.69 c -0.95,4.67 -3.65,7.8 -5.77,12.07 -6.1,11.93 -11.6,23.71 -14.07,36.99 l -0.93,0.41 c 0.71,-11.2 6.13,-22.43 10.85,-32.47 2.69,-6.09 6.61,-11.42 8.8,-17.69 z"
     id="path64"
     inkscape:connector-curvature="0"
     style="fill:#565656" />
  <path
     d="m 87.749266,130.4265 c 0.39,3.45 -1.21,5.97 -2.47,9.01 -2.38,5.33 -4.34,10.73 -5.97,16.34 -0.85,1.4 -1.77,2.76 -2.71,4.11 2.64,-10.1 6.51,-20.12 11.15,-29.46 z"
     id="path66"
     inkscape:connector-curvature="0"
     style="fill:#565656" />
  <path
     d="m 106.73926,132.1865 c 1.52,3.81 0.16,7.65 -2.06,10.85 -2.05,2.37 -3.79,4.71 -7.299994,3.87 2.12,-1.47 4.789994,-2.89 6.279994,-5.05 1.94,-2.71 2.37,-6.48 3.08,-9.67 z"
     id="path68"
     inkscape:connector-curvature="0"
     style="fill:#565656" />
  <path
     d="m 156.86926,131.1765 1,1.2 c -3.57,8.16 -7.5,16.08 -10.58,24.45 -0.69,1.08 -1.42,2.13 -2.15,3.18 2.24,-10.02 7.63,-19.46 11.73,-28.83 z"
     id="path70"
     inkscape:connector-curvature="0"
     style="fill:#565656" />
  <path
     d="m 78.169266,134.6365 -0.61,1.23 c -4.36,0.67 -8.75,0.98 -13.15,1.14 -3.38,11.38 -6.68,22.79 -10.09,34.16 -2.54,8.06 -4.55,16.02 -9,23.32 -2.48,4.12 -6.17,7.67 -10.52,9.75 -4.56,2.03 -9.99,2.18 -13.86,-1.38 3.4,1.23 6.72,2.07 10.32,1.08 5.18,-1.51 9.7,-5.31 12.52,-9.87 4.97,-7.81 7.06,-16.71 9.8,-25.44 3.35,-10.86 6.3,-21.84 9.75,-32.66 4.94,-0.47 9.89,-0.93 14.84,-1.33 z"
     id="path74"
     inkscape:connector-curvature="0"
     style="fill:#565656" />
  <path
     d="m 57.889266,136.2965 c -0.16,0.51 -0.31,1.02 -0.47,1.53 -3.88,-0.1 -7.45,0.67 -10.93,-1.31 3.8,-0.12 7.6,-0.15 11.4,-0.22 z"
     id="path76"
     inkscape:connector-curvature="0"
     style="fill:#565656" />
  <path
     d="m 99.389266,136.7165 0.24,1.27 c -2.47,1.51 -4.71,3.21 -6.51,5.51 -7.83,9.69 -13.69,21.29 -18.1,32.9 -0.96,2.64 -3.22,3.4 -5.53,4.56 l -1.75,-1.05 c 2.64,-1.25 5.13,-1.69 6.19,-4.76 4.47,-11.92 10.54,-23.51 18.56,-33.42 1.96,-2.46 3.97,-3.88 6.9,-5.01 z"
     id="path78"
     inkscape:connector-curvature="0"
     style="fill:#565656" />
  <path
     d="m 125.06926,137.7265 c -1.91,1.37 -3.71,2.68 -4.91,4.76 -4.21,6.81 -7.5,14.53 -9.56,22.27 -1.2,4.09 -1.08,8.18 -0.73,12.38 -2.6,-4.48 -1.23,-10.56 0.03,-15.29 2.33,-7.56 5.57,-15.13 10,-21.71 1.47,-1.53 2.87,-4.24 5.17,-2.41 z"
     id="path80"
     inkscape:connector-curvature="0"
     style="fill:#565656" />
  <path
     d="m 168.27926,136.4565 -0.65,2.11 c -9.16,10.96 -17.77,22.15 -24.36,34.89 -2.46,3.97 -4.81,9.25 -10.42,8.51 2.43,-1.64 4.8,-2.84 6.54,-5.26 2.87,-3.9 4.85,-8.51 7.42,-12.63 4.62,-7.51 9.95,-14.61 15.42,-21.51 1.81,-2.3 3.76,-4.28 6.05,-6.11 z"
     id="path82"
     inkscape:connector-curvature="0"
     style="fill:#565656" />
  <path
     d="m 190.32926,138.4465 -0.38,1.42 c -9.98,7.18 -17.77,17.54 -22.3,28.93 -1.21,2.87 -1.88,6.05 -3.34,8.8 -1.43,1.78 -4.24,2.54 -6.27,3.4 l -1.55,-1.09 c 2.09,-0.74 4.53,-1.45 6.26,-2.86 1.49,-2.08 2.08,-4.87 2.99,-7.24 3.73,-10.84 10.48,-20.19 18.92,-27.85 1.69,-1.51 3.65,-2.52 5.67,-3.51 z"
     id="path88"
     inkscape:connector-curvature="0"
     style="fill:#565656" />
  <path
     d="m 138.29926,143.1465 0.82,0.45 c -0.68,2.81 -2.94,2.87 -5.18,4.06 -0.39,9.3 -3.1,18.29 -8.79,25.74 -2.52,3.17 -5.75,6.28 -9.5,7.91 -3.64,1.46 -7.5,1.49 -10.38,-1.48 2.62,0.95 5.03,1.8 7.82,0.85 5.66,-1.87 9.96,-6.44 13.03,-11.4 4.44,-6.9 5.99,-14.58 6.8,-22.62 1.8,-1.15 3.57,-2.35 5.38,-3.51 z"
     id="path90"
     inkscape:connector-curvature="0"
     style="fill:#565656" />
  <path
     d="m 198.08926,202.2065 c 2.52,0.26 6.83,-0.9 8.64,1.14 0.42,2.69 0.22,5.52 0.25,8.24 -0.07,23.91 0.04,47.82 -0.06,71.73 -2.75,0.19 -5.49,0.2 -8.24,-0.05 -0.82,-4.55 -0.62,-9.08 -0.59,-13.68 0,-22.46 0,-44.92 0,-67.38 z"
     id="path98"
     inkscape:connector-curvature="0"
     style="fill:#565656" />
  <path
     style="fill:#565656;stroke-width:0.99999994"
     d="m 94.00829,207.0284 c -4.776248,0.0125 -9.553845,0.0781 -14.31885,0.0381 -0.06,25.19001 -0.02047,50.38008 -0.02047,75.58008 3.249997,1 6.449805,0.84932 9.799807,0.54932 0.03997,-10.27 -0.07969,-20.52955 0.07027,-30.78955 5.029995,-0.02 10.059608,0.01 15.099603,-0.0703 4.29,6.75 8.06993,13.83996 12.16992,20.70996 2.02001,3.3 3.66063,7.02023 6.14063,9.99023 3,0.79 6.45053,0.28998 9.54052,0.22998 -5.64999,-10.81 -12.36068,-21.07004 -18.20067,-31.79004 4.45999,-1.58 8.64045,-3.44018 11.96044,-6.93017 5.54,-5.44001 6.72035,-14.79891 4.11035,-21.87891 -3.44,-9.08 -12.57003,-14.71035 -22.04004,-15.36036 -4.75999,-0.24999 -9.53527,-0.29082 -14.311518,-0.27831 z m 3.884767,8.12403 c 2.798753,-0.0163 5.596233,-0.0113 8.386233,0.0937 4.89999,0.24999 9.64064,1.61046 12.66064,5.73047 3.44,4.93999 3.16957,12.17008 -0.19043,17.08007 -3.07,4.02 -8.49071,6.19942 -13.4707,6.14942 -5.27,0.09 -10.540063,-0.02 -15.810058,0 0.01,-9.67 -0.03923,-19.35002 0.03075,-29.02002 2.795003,0.02 5.594805,-0.0175 8.393558,-0.0337 z"
     id="path100"
     inkscape:connector-curvature="0" />
  <path
     d="m 306.93926,208.6065 c 2.3,-0.61 5.06,1.06 6.53,2.73 2.83,3.12 1.84,8.84 -2.43,10.09 -3.8,1.4 -7.66,-1.24 -8.85,-4.87 -1.24,-3.62 1.03,-7.27 4.75,-7.95 z"
     id="path102"
     inkscape:connector-curvature="0"
     style="fill:#565656" />
  <path
     d="m 221.69926,209.0565 c 2.66,-0.83 5.38,-0.31 7.4,1.63 3.05,2.53 2.85,8.95 -1.17,10.48 -3.7,1.77 -7.73,-0.29 -9.3,-3.87 -1.65,-2.97 -0.02,-7.06 3.07,-8.24 z"
     id="path104"
     inkscape:connector-curvature="0"
     style="fill:#565656" />
  <path
     style="fill:#565656;stroke-width:0.99999994"
     d="m 162.16161,228.80624 c -1.60404,-0.0296 -3.23332,0.11279 -4.87207,0.44091 -13.12,2.79 -22.63094,16.71944 -21.21094,29.91944 1.46,11.85 10.60034,22.82961 22.34033,25.59961 6.15,0.96 13.0802,0.52064 18.7002,-2.33936 4.34,-2.22 7.49004,-5.74031 10.04004,-9.82031 -2.31,-1.64 -4.64928,-3.2303 -7.00928,-4.80029 -2.56,3.45 -4.77082,6.81019 -9.09082,8.20019 -6.44,1.75 -14.19039,2.11948 -19.40039,-2.79053 -4.74,-3.99 -6.32978,-9.42965 -7.02979,-15.38964 9.54,-0.06 19.09038,-0.009 28.63038,-0.0293 5.28,-0.04 10.43994,0.29953 15.68994,-0.48047 -0.59,-7.56 -3.19055,-14.39984 -8.56055,-19.83984 -4.79375,-5.20813 -11.27624,-8.54219 -18.22705,-8.67041 z m 0.60791,8.12988 c 3.2675,-0.015 6.53422,0.9509 9.19922,2.92089 3.51,2.43 5.1908,5.82977 7.0708,9.50977 -10.94,0.08 -21.90033,0.15045 -32.84033,-0.0395 1.91,-3.68001 3.81963,-7.07067 7.36962,-9.43067 2.66501,-1.95 5.93319,-2.94545 9.20069,-2.96045 z"
     id="path108"
     inkscape:connector-curvature="0" />
  <path
     style="fill:#565656;stroke-width:0.99999994"
     d="m 264.98485,228.78866 c -13.32694,-0.38865 -24.96469,11.92251 -26.15625,24.77783 -1.51,13.11 7.51018,26.05047 19.68018,30.48047 5.45,1.84 11.83047,1.56015 16.98047,-1.08985 2.69,-1.32999 4.88951,-3.12066 7.24951,-4.93066 -0.18,4.12 -0.26935,9.0102 -2.33935,12.7002 -2.09,3.99 -6.63034,6.54962 -11.09033,6.61963 -6.27,0.12999 -12.55936,0.0207 -18.83936,-0.0293 -0.13001,2.35001 -1.07049,5.72897 0.49951,7.68897 3.35,0.6 6.89053,0.31016 10.29052,0.41015 4.38,-0.03 8.95002,0.30985 13.27002,-0.41015 5.47001,-1.12 10.97993,-4.49002 13.66993,-9.52002 2.82,-4.94 3.20978,-11.3199 3.27978,-16.8999 -0.02,-11 -0.0105,-22 -0.0205,-33 -0.05,-5.02 0.41056,-9.77926 -0.66944,-14.73926 -2.71,-0.04 -5.40963,-0.0605 -8.11963,-0.0806 -0.02,2.02 -0.0313,4.03102 -0.0513,6.04102 -4.8,-4.16 -9.74886,-7.65092 -16.33887,-7.94092 -0.43312,-0.0394 -0.86502,-0.0651 -1.29492,-0.0776 z m 0.23145,8.17236 c 3.42328,-0.0577 6.78351,0.9099 9.60351,3.0249 6.55001,4.89 8.99965,13.76079 7.13965,21.55078 -1.78999,8.85 -10.23997,16.94945 -19.72998,15.43946 -8.75,-1.23 -14.4197,-10.00965 -14.69971,-18.38965 -0.61999,-9.09 5.00879,-19.04998 14.25879,-21.22998 1.13751,-0.2425 2.28665,-0.37629 3.42774,-0.39551 z"
     id="path110"
     inkscape:connector-curvature="0" />
  <path
     style="fill:#565656;stroke-width:0.99999994"
     d="m 348.61718,228.80624 c -1.90936,-0.035 -3.85987,0.17226 -5.82862,0.65039 -11.98999,3.16999 -21.05872,15.72939 -20.19873,28.12939 0.09,7.31 3.87981,14.59012 9.04981,19.62012 4.99,4.86 11.49989,8.33072 18.62988,7.99072 7.88,-0.15 14.8004,-5.10019 19.40039,-11.20019 7.38,-9.69 7.23951,-23.96054 -0.25048,-33.54053 -5.01313,-6.80875 -12.52837,-11.49842 -20.80225,-11.6499 z m 0.99023,8.15478 c 3.50228,0.0684 6.92766,1.22613 9.69141,3.53613 6.27,5.19 8.46029,14.17891 6.30029,21.87891 -2.23,8.52 -10.09963,15.92086 -19.36963,14.63086 -8.89999,-1.12 -14.64013,-10.06002 -14.89013,-18.52002 -0.61001,-8.79 4.81999,-18.36019 13.5,-20.9502 1.56874,-0.4125 3.17612,-0.60679 4.76806,-0.57568 z"
     id="path112"
     inkscape:connector-curvature="0" />
  <path
     d="m 405.22926,228.9165 c 8.85,-0.74 17.8,2.07 23.06,9.57 3.12,4.19 3.75,9.01 3.65,14.1 -0.05,10.25 0.03,20.5 -0.05,30.75 -2.75,0.05 -5.48,0.03 -8.23,-0.11 -1.1,-7.77 -0.33,-15.8 -0.56,-23.64 -0.21,-4.85 0.67,-10.36 -0.8,-15.01 -3.74,-9.2 -18.71,-10.31 -24.29,-2.35 -3.21,4.49 -4.43,9.89 -4.4,15.36 0.03,8.58 0.02,17.16 -0.01,25.74 -2.92,0.11 -5.8,0.04 -8.71,-0.28 -0.25,-17.42 -0.07,-34.86 -0.1,-52.29 2.4,0.02 4.87,-0.13 7.24,0.2 0.77,0.74 1.44,1.58 2.13,2.39 3.44,-2.29 6.82,-4.27 11.07,-4.43 z"
     id="path114"
     inkscape:connector-curvature="0"
     style="fill:#565656" />
  <path
     d="m 220.07926,230.8065 c 2.91,-0.02 5.82,0.01 8.72,0.18 0.45,6.49 0.18,13.08 0.25,19.6 -0.04,10.93 0.09,21.86 -0.08,32.79 -2.76,0.02 -5.51,-0.02 -8.27,-0.17 -0.39,-2.53 -0.68,-5.06 -0.66,-7.62 0.09,-14.93 0.01,-29.85 0.04,-44.78 z"
     id="path116"
     inkscape:connector-curvature="0"
     style="fill:#565656" />
  <path
     d="m 304.00926,230.7565 c 2.92,0 5.85,0.08 8.76,0.36 0.3,17.39 0.1,34.8 0.11,52.19 -2.27,-0.24 -7.99,1.27 -8.7,-1.7 -0.38,-2.96 -0.17,-6.03 -0.19,-9.02 0.03,-13.94 0,-27.88 0.02,-41.83 z"
     id="path118"
     inkscape:connector-curvature="0"
     style="fill:#565656" />
  <circle
     style="opacity:1;fill:#565656;fill-opacity:1;stroke:#ff0000;stroke-width:0;stroke-miterlimit:4;stroke-dasharray:none;stroke-opacity:1"
     id="path4659"
     cx="388.68484"
     cy="9.9687691"
     r="6.9982395" />
</svg>
